<mxfile host="app.diagrams.net" modified="2020-12-07T04:23:18.110Z" agent="5.0 (Macintosh; Intel Mac OS X 11_0_0) AppleWebKit/537.36 (KHTML, like Gecko) Chrome/86.0.4240.198 Safari/537.36" etag="fH4TR8zus6HhA0kFsBh8" version="13.10.4" type="github" pages="2">
  <diagram id="LmRKK3PvB-i8iHBpK6P2" name="Page-2">
    <mxGraphModel dx="2170" dy="1724" grid="1" gridSize="10" guides="1" tooltips="1" connect="1" arrows="1" fold="1" page="1" pageScale="1" pageWidth="1100" pageHeight="850" math="0" shadow="0">
      <root>
        <mxCell id="KmR6hfnkJqVhASCbSWi3-0" />
        <mxCell id="KmR6hfnkJqVhASCbSWi3-1" parent="KmR6hfnkJqVhASCbSWi3-0" />
        <mxCell id="bJRQvzsolLCc_rSZNGnh-106" style="edgeStyle=orthogonalEdgeStyle;rounded=0;orthogonalLoop=1;jettySize=auto;html=1;" edge="1" parent="KmR6hfnkJqVhASCbSWi3-1" source="bJRQvzsolLCc_rSZNGnh-0" target="bJRQvzsolLCc_rSZNGnh-93">
          <mxGeometry relative="1" as="geometry">
            <Array as="points">
              <mxPoint x="515" y="110" />
              <mxPoint x="515" y="110" />
            </Array>
          </mxGeometry>
        </mxCell>
        <mxCell id="Da19G1KepFY5_RqIi6cU-11" style="edgeStyle=orthogonalEdgeStyle;rounded=0;orthogonalLoop=1;jettySize=auto;html=1;" edge="1" parent="KmR6hfnkJqVhASCbSWi3-1" source="bJRQvzsolLCc_rSZNGnh-0" target="Da19G1KepFY5_RqIi6cU-0">
          <mxGeometry relative="1" as="geometry" />
        </mxCell>
        <mxCell id="bJRQvzsolLCc_rSZNGnh-0" value="LogIn" style="rounded=0;whiteSpace=wrap;html=1;" vertex="1" parent="KmR6hfnkJqVhASCbSWi3-1">
          <mxGeometry x="450" y="40" width="120" height="60" as="geometry" />
        </mxCell>
        <mxCell id="bJRQvzsolLCc_rSZNGnh-1" value="Search (Main Screen)" style="rounded=0;whiteSpace=wrap;html=1;" vertex="1" parent="KmR6hfnkJqVhASCbSWi3-1">
          <mxGeometry x="710" y="120" width="150" height="60" as="geometry" />
        </mxCell>
        <mxCell id="bJRQvzsolLCc_rSZNGnh-2" value="Hidden Menu" style="rounded=0;whiteSpace=wrap;html=1;" vertex="1" parent="KmR6hfnkJqVhASCbSWi3-1">
          <mxGeometry x="190" y="120" width="150" height="60" as="geometry" />
        </mxCell>
        <mxCell id="bJRQvzsolLCc_rSZNGnh-3" value="Search history" style="rounded=0;whiteSpace=wrap;html=1;" vertex="1" parent="KmR6hfnkJqVhASCbSWi3-1">
          <mxGeometry x="840" y="200" width="150" height="60" as="geometry" />
        </mxCell>
        <mxCell id="bJRQvzsolLCc_rSZNGnh-4" value="Search Box" style="rounded=0;whiteSpace=wrap;html=1;" vertex="1" parent="KmR6hfnkJqVhASCbSWi3-1">
          <mxGeometry x="670.2" y="200" width="150" height="60" as="geometry" />
        </mxCell>
        <mxCell id="bJRQvzsolLCc_rSZNGnh-28" style="edgeStyle=orthogonalEdgeStyle;rounded=0;orthogonalLoop=1;jettySize=auto;html=1;exitX=1;exitY=0.5;exitDx=0;exitDy=0;" edge="1" parent="KmR6hfnkJqVhASCbSWi3-1" source="bJRQvzsolLCc_rSZNGnh-5" target="bJRQvzsolLCc_rSZNGnh-7">
          <mxGeometry relative="1" as="geometry" />
        </mxCell>
        <mxCell id="bJRQvzsolLCc_rSZNGnh-5" value="Recipes Screen" style="rounded=0;whiteSpace=wrap;html=1;" vertex="1" parent="KmR6hfnkJqVhASCbSWi3-1">
          <mxGeometry x="740" y="280" width="150" height="60" as="geometry" />
        </mxCell>
        <mxCell id="bJRQvzsolLCc_rSZNGnh-101" style="edgeStyle=orthogonalEdgeStyle;rounded=0;orthogonalLoop=1;jettySize=auto;html=1;" edge="1" parent="KmR6hfnkJqVhASCbSWi3-1" source="bJRQvzsolLCc_rSZNGnh-6" target="bJRQvzsolLCc_rSZNGnh-50">
          <mxGeometry relative="1" as="geometry" />
        </mxCell>
        <mxCell id="bJRQvzsolLCc_rSZNGnh-6" value="Add to Favorites" style="rounded=0;whiteSpace=wrap;html=1;" vertex="1" parent="KmR6hfnkJqVhASCbSWi3-1">
          <mxGeometry x="730" y="360" width="150" height="60" as="geometry" />
        </mxCell>
        <mxCell id="bJRQvzsolLCc_rSZNGnh-79" style="edgeStyle=orthogonalEdgeStyle;rounded=0;orthogonalLoop=1;jettySize=auto;html=1;" edge="1" parent="KmR6hfnkJqVhASCbSWi3-1" source="bJRQvzsolLCc_rSZNGnh-7" target="bJRQvzsolLCc_rSZNGnh-78">
          <mxGeometry relative="1" as="geometry" />
        </mxCell>
        <mxCell id="bJRQvzsolLCc_rSZNGnh-7" value="3D Print" style="rounded=0;whiteSpace=wrap;html=1;" vertex="1" parent="KmR6hfnkJqVhASCbSWi3-1">
          <mxGeometry x="1020" y="360" width="150" height="60" as="geometry" />
        </mxCell>
        <mxCell id="bJRQvzsolLCc_rSZNGnh-8" value="Previous and Next" style="rounded=0;whiteSpace=wrap;html=1;" vertex="1" parent="KmR6hfnkJqVhASCbSWi3-1">
          <mxGeometry x="550" y="360" width="150" height="60" as="geometry" />
        </mxCell>
        <mxCell id="bJRQvzsolLCc_rSZNGnh-9" value="More recipes" style="rounded=0;whiteSpace=wrap;html=1;" vertex="1" parent="KmR6hfnkJqVhASCbSWi3-1">
          <mxGeometry x="600.2" y="440" width="70" height="60" as="geometry" />
        </mxCell>
        <mxCell id="bJRQvzsolLCc_rSZNGnh-11" value="More recipes" style="rounded=0;whiteSpace=wrap;html=1;" vertex="1" parent="KmR6hfnkJqVhASCbSWi3-1">
          <mxGeometry x="600.2" y="510" width="70" height="60" as="geometry" />
        </mxCell>
        <mxCell id="bJRQvzsolLCc_rSZNGnh-12" value="More recipes" style="rounded=0;whiteSpace=wrap;html=1;" vertex="1" parent="KmR6hfnkJqVhASCbSWi3-1">
          <mxGeometry x="600" y="580" width="70.2" height="60.17" as="geometry" />
        </mxCell>
        <mxCell id="bJRQvzsolLCc_rSZNGnh-15" value="" style="endArrow=classic;html=1;exitX=0;exitY=0.25;exitDx=0;exitDy=0;entryX=0.5;entryY=0;entryDx=0;entryDy=0;" edge="1" parent="KmR6hfnkJqVhASCbSWi3-1" source="bJRQvzsolLCc_rSZNGnh-5" target="bJRQvzsolLCc_rSZNGnh-8">
          <mxGeometry width="50" height="50" relative="1" as="geometry">
            <mxPoint x="550" y="510" as="sourcePoint" />
            <mxPoint x="510" y="550" as="targetPoint" />
            <Array as="points">
              <mxPoint x="625" y="295" />
            </Array>
          </mxGeometry>
        </mxCell>
        <mxCell id="bJRQvzsolLCc_rSZNGnh-18" value="" style="endArrow=none;html=1;entryX=0.132;entryY=1.017;entryDx=0;entryDy=0;entryPerimeter=0;" edge="1" parent="KmR6hfnkJqVhASCbSWi3-1">
          <mxGeometry width="50" height="50" relative="1" as="geometry">
            <mxPoint x="580.2" y="620" as="sourcePoint" />
            <mxPoint x="580" y="421.02" as="targetPoint" />
          </mxGeometry>
        </mxCell>
        <mxCell id="bJRQvzsolLCc_rSZNGnh-19" value="" style="endArrow=classic;html=1;" edge="1" parent="KmR6hfnkJqVhASCbSWi3-1">
          <mxGeometry width="50" height="50" relative="1" as="geometry">
            <mxPoint x="580.2" y="540" as="sourcePoint" />
            <mxPoint x="600.2" y="540" as="targetPoint" />
          </mxGeometry>
        </mxCell>
        <mxCell id="bJRQvzsolLCc_rSZNGnh-20" value="&amp;nbsp;" style="endArrow=classic;html=1;" edge="1" parent="KmR6hfnkJqVhASCbSWi3-1">
          <mxGeometry width="50" height="50" relative="1" as="geometry">
            <mxPoint x="580" y="620" as="sourcePoint" />
            <mxPoint x="600" y="620" as="targetPoint" />
          </mxGeometry>
        </mxCell>
        <mxCell id="bJRQvzsolLCc_rSZNGnh-21" value="" style="endArrow=classic;html=1;" edge="1" parent="KmR6hfnkJqVhASCbSWi3-1" target="bJRQvzsolLCc_rSZNGnh-9">
          <mxGeometry width="50" height="50" relative="1" as="geometry">
            <mxPoint x="580.2" y="470" as="sourcePoint" />
            <mxPoint x="560.2" y="460" as="targetPoint" />
          </mxGeometry>
        </mxCell>
        <mxCell id="bJRQvzsolLCc_rSZNGnh-24" value="" style="endArrow=classic;html=1;" edge="1" parent="KmR6hfnkJqVhASCbSWi3-1" source="bJRQvzsolLCc_rSZNGnh-4" target="bJRQvzsolLCc_rSZNGnh-5">
          <mxGeometry width="50" height="50" relative="1" as="geometry">
            <mxPoint x="600" y="510" as="sourcePoint" />
            <mxPoint x="650" y="460" as="targetPoint" />
          </mxGeometry>
        </mxCell>
        <mxCell id="bJRQvzsolLCc_rSZNGnh-25" value="" style="endArrow=classic;html=1;" edge="1" parent="KmR6hfnkJqVhASCbSWi3-1" source="bJRQvzsolLCc_rSZNGnh-3" target="bJRQvzsolLCc_rSZNGnh-5">
          <mxGeometry width="50" height="50" relative="1" as="geometry">
            <mxPoint x="600" y="510" as="sourcePoint" />
            <mxPoint x="650" y="460" as="targetPoint" />
          </mxGeometry>
        </mxCell>
        <mxCell id="bJRQvzsolLCc_rSZNGnh-26" value="" style="endArrow=classic;html=1;" edge="1" parent="KmR6hfnkJqVhASCbSWi3-1" source="bJRQvzsolLCc_rSZNGnh-1" target="bJRQvzsolLCc_rSZNGnh-4">
          <mxGeometry width="50" height="50" relative="1" as="geometry">
            <mxPoint x="550" y="510" as="sourcePoint" />
            <mxPoint x="600" y="460" as="targetPoint" />
          </mxGeometry>
        </mxCell>
        <mxCell id="bJRQvzsolLCc_rSZNGnh-27" value="" style="endArrow=classic;html=1;exitX=0.405;exitY=1.063;exitDx=0;exitDy=0;exitPerimeter=0;" edge="1" parent="KmR6hfnkJqVhASCbSWi3-1" source="bJRQvzsolLCc_rSZNGnh-5" target="bJRQvzsolLCc_rSZNGnh-6">
          <mxGeometry width="50" height="50" relative="1" as="geometry">
            <mxPoint x="550" y="510" as="sourcePoint" />
            <mxPoint x="600" y="460" as="targetPoint" />
          </mxGeometry>
        </mxCell>
        <mxCell id="bJRQvzsolLCc_rSZNGnh-115" style="edgeStyle=orthogonalEdgeStyle;rounded=0;orthogonalLoop=1;jettySize=auto;html=1;exitX=1;exitY=0.5;exitDx=0;exitDy=0;" edge="1" parent="KmR6hfnkJqVhASCbSWi3-1" source="bJRQvzsolLCc_rSZNGnh-29" target="bJRQvzsolLCc_rSZNGnh-1">
          <mxGeometry relative="1" as="geometry">
            <Array as="points">
              <mxPoint x="370" y="370" />
              <mxPoint x="370" y="350" />
              <mxPoint x="600" y="350" />
              <mxPoint x="600" y="170" />
            </Array>
          </mxGeometry>
        </mxCell>
        <mxCell id="bJRQvzsolLCc_rSZNGnh-29" value="Search" style="rounded=0;whiteSpace=wrap;html=1;" vertex="1" parent="KmR6hfnkJqVhASCbSWi3-1">
          <mxGeometry x="190" y="350" width="150" height="60" as="geometry" />
        </mxCell>
        <mxCell id="bJRQvzsolLCc_rSZNGnh-30" value="Settings" style="rounded=0;whiteSpace=wrap;html=1;" vertex="1" parent="KmR6hfnkJqVhASCbSWi3-1">
          <mxGeometry x="190" y="420" width="150" height="60" as="geometry" />
        </mxCell>
        <mxCell id="bJRQvzsolLCc_rSZNGnh-31" value="Favorites" style="rounded=0;whiteSpace=wrap;html=1;" vertex="1" parent="KmR6hfnkJqVhASCbSWi3-1">
          <mxGeometry x="190" y="200" width="150" height="60" as="geometry" />
        </mxCell>
        <mxCell id="2R1bxhX4PakgP03k6btq-48" style="edgeStyle=orthogonalEdgeStyle;rounded=0;orthogonalLoop=1;jettySize=auto;html=1;entryX=1;entryY=0.25;entryDx=0;entryDy=0;fontColor=#FFFFFF;" edge="1" parent="KmR6hfnkJqVhASCbSWi3-1" source="bJRQvzsolLCc_rSZNGnh-32" target="2R1bxhX4PakgP03k6btq-46">
          <mxGeometry relative="1" as="geometry">
            <Array as="points">
              <mxPoint x="60" y="290" />
              <mxPoint x="60" y="215" />
            </Array>
          </mxGeometry>
        </mxCell>
        <mxCell id="2R1bxhX4PakgP03k6btq-49" style="edgeStyle=orthogonalEdgeStyle;rounded=0;orthogonalLoop=1;jettySize=auto;html=1;entryX=1;entryY=0.5;entryDx=0;entryDy=0;fontColor=#FFFFFF;" edge="1" parent="KmR6hfnkJqVhASCbSWi3-1" source="bJRQvzsolLCc_rSZNGnh-32" target="2R1bxhX4PakgP03k6btq-45">
          <mxGeometry relative="1" as="geometry">
            <Array as="points">
              <mxPoint x="60" y="290" />
              <mxPoint x="60" y="310" />
            </Array>
          </mxGeometry>
        </mxCell>
        <mxCell id="2R1bxhX4PakgP03k6btq-50" style="edgeStyle=orthogonalEdgeStyle;rounded=0;orthogonalLoop=1;jettySize=auto;html=1;entryX=1.022;entryY=0.645;entryDx=0;entryDy=0;entryPerimeter=0;fontColor=#FFFFFF;" edge="1" parent="KmR6hfnkJqVhASCbSWi3-1" source="bJRQvzsolLCc_rSZNGnh-32" target="2R1bxhX4PakgP03k6btq-47">
          <mxGeometry relative="1" as="geometry">
            <Array as="points">
              <mxPoint x="60" y="290" />
              <mxPoint x="60" y="399" />
            </Array>
          </mxGeometry>
        </mxCell>
        <mxCell id="bJRQvzsolLCc_rSZNGnh-32" value="Ingredients" style="rounded=0;whiteSpace=wrap;html=1;" vertex="1" parent="KmR6hfnkJqVhASCbSWi3-1">
          <mxGeometry x="190" y="270" width="150" height="60" as="geometry" />
        </mxCell>
        <mxCell id="bJRQvzsolLCc_rSZNGnh-112" style="edgeStyle=orthogonalEdgeStyle;rounded=0;orthogonalLoop=1;jettySize=auto;html=1;entryX=0;entryY=0.25;entryDx=0;entryDy=0;" edge="1" parent="KmR6hfnkJqVhASCbSWi3-1" source="bJRQvzsolLCc_rSZNGnh-33" target="bJRQvzsolLCc_rSZNGnh-93">
          <mxGeometry relative="1" as="geometry">
            <Array as="points">
              <mxPoint x="410" y="510" />
              <mxPoint x="410" y="133" />
            </Array>
          </mxGeometry>
        </mxCell>
        <mxCell id="bJRQvzsolLCc_rSZNGnh-33" value="Switch User" style="rounded=0;whiteSpace=wrap;html=1;" vertex="1" parent="KmR6hfnkJqVhASCbSWi3-1">
          <mxGeometry x="190" y="490" width="150" height="60" as="geometry" />
        </mxCell>
        <mxCell id="2R1bxhX4PakgP03k6btq-42" style="edgeStyle=orthogonalEdgeStyle;rounded=0;orthogonalLoop=1;jettySize=auto;html=1;fontColor=#FFFFFF;" edge="1" parent="KmR6hfnkJqVhASCbSWi3-1" source="bJRQvzsolLCc_rSZNGnh-34" target="2R1bxhX4PakgP03k6btq-41">
          <mxGeometry relative="1" as="geometry">
            <Array as="points">
              <mxPoint x="240" y="630" />
              <mxPoint x="70" y="630" />
              <mxPoint x="70" y="545" />
            </Array>
          </mxGeometry>
        </mxCell>
        <mxCell id="2R1bxhX4PakgP03k6btq-44" style="edgeStyle=orthogonalEdgeStyle;rounded=0;orthogonalLoop=1;jettySize=auto;html=1;exitX=1;exitY=0.5;exitDx=0;exitDy=0;fontColor=#FFFFFF;" edge="1" parent="KmR6hfnkJqVhASCbSWi3-1" source="bJRQvzsolLCc_rSZNGnh-34" target="2R1bxhX4PakgP03k6btq-43">
          <mxGeometry relative="1" as="geometry">
            <Array as="points">
              <mxPoint x="340" y="580" />
              <mxPoint x="240" y="580" />
              <mxPoint x="240" y="630" />
            </Array>
          </mxGeometry>
        </mxCell>
        <mxCell id="bJRQvzsolLCc_rSZNGnh-34" value="Printing Queue" style="rounded=0;whiteSpace=wrap;html=1;" vertex="1" parent="KmR6hfnkJqVhASCbSWi3-1">
          <mxGeometry x="190" y="560" width="150" height="60" as="geometry" />
        </mxCell>
        <mxCell id="bJRQvzsolLCc_rSZNGnh-87" style="edgeStyle=orthogonalEdgeStyle;rounded=0;orthogonalLoop=1;jettySize=auto;html=1;" edge="1" parent="KmR6hfnkJqVhASCbSWi3-1" source="bJRQvzsolLCc_rSZNGnh-35">
          <mxGeometry relative="1" as="geometry">
            <mxPoint x="450" y="70" as="targetPoint" />
            <Array as="points">
              <mxPoint x="100" y="810" />
              <mxPoint x="100" y="70" />
            </Array>
          </mxGeometry>
        </mxCell>
        <mxCell id="bJRQvzsolLCc_rSZNGnh-35" value="LogOut" style="rounded=0;whiteSpace=wrap;html=1;" vertex="1" parent="KmR6hfnkJqVhASCbSWi3-1">
          <mxGeometry x="190" y="715" width="150" height="60" as="geometry" />
        </mxCell>
        <mxCell id="bJRQvzsolLCc_rSZNGnh-37" value="" style="endArrow=none;html=1;entryX=0;entryY=0.367;entryDx=0;entryDy=0;entryPerimeter=0;" edge="1" parent="KmR6hfnkJqVhASCbSWi3-1" target="bJRQvzsolLCc_rSZNGnh-2">
          <mxGeometry width="50" height="50" relative="1" as="geometry">
            <mxPoint x="160" y="140" as="sourcePoint" />
            <mxPoint x="550" y="460" as="targetPoint" />
          </mxGeometry>
        </mxCell>
        <mxCell id="bJRQvzsolLCc_rSZNGnh-38" value="" style="endArrow=none;html=1;" edge="1" parent="KmR6hfnkJqVhASCbSWi3-1">
          <mxGeometry width="50" height="50" relative="1" as="geometry">
            <mxPoint x="160" y="750" as="sourcePoint" />
            <mxPoint x="160" y="140" as="targetPoint" />
          </mxGeometry>
        </mxCell>
        <mxCell id="bJRQvzsolLCc_rSZNGnh-39" value="" style="endArrow=classic;html=1;entryX=0;entryY=0.5;entryDx=0;entryDy=0;" edge="1" parent="KmR6hfnkJqVhASCbSWi3-1" target="bJRQvzsolLCc_rSZNGnh-35">
          <mxGeometry width="50" height="50" relative="1" as="geometry">
            <mxPoint x="160" y="745" as="sourcePoint" />
            <mxPoint x="190" y="578" as="targetPoint" />
          </mxGeometry>
        </mxCell>
        <mxCell id="bJRQvzsolLCc_rSZNGnh-40" value="" style="endArrow=classic;html=1;" edge="1" parent="KmR6hfnkJqVhASCbSWi3-1" target="bJRQvzsolLCc_rSZNGnh-34">
          <mxGeometry width="50" height="50" relative="1" as="geometry">
            <mxPoint x="160" y="590" as="sourcePoint" />
            <mxPoint x="550" y="460" as="targetPoint" />
          </mxGeometry>
        </mxCell>
        <mxCell id="bJRQvzsolLCc_rSZNGnh-41" value="" style="endArrow=classic;html=1;" edge="1" parent="KmR6hfnkJqVhASCbSWi3-1" target="bJRQvzsolLCc_rSZNGnh-33">
          <mxGeometry width="50" height="50" relative="1" as="geometry">
            <mxPoint x="160" y="520" as="sourcePoint" />
            <mxPoint x="550" y="460" as="targetPoint" />
          </mxGeometry>
        </mxCell>
        <mxCell id="bJRQvzsolLCc_rSZNGnh-42" value="" style="endArrow=classic;html=1;" edge="1" parent="KmR6hfnkJqVhASCbSWi3-1">
          <mxGeometry width="50" height="50" relative="1" as="geometry">
            <mxPoint x="160" y="440" as="sourcePoint" />
            <mxPoint x="190" y="440" as="targetPoint" />
          </mxGeometry>
        </mxCell>
        <mxCell id="bJRQvzsolLCc_rSZNGnh-43" value="" style="endArrow=classic;html=1;entryX=0;entryY=0.5;entryDx=0;entryDy=0;" edge="1" parent="KmR6hfnkJqVhASCbSWi3-1" target="bJRQvzsolLCc_rSZNGnh-29">
          <mxGeometry width="50" height="50" relative="1" as="geometry">
            <mxPoint x="160" y="380" as="sourcePoint" />
            <mxPoint x="550" y="460" as="targetPoint" />
          </mxGeometry>
        </mxCell>
        <mxCell id="bJRQvzsolLCc_rSZNGnh-44" value="" style="endArrow=classic;html=1;entryX=0;entryY=0.5;entryDx=0;entryDy=0;" edge="1" parent="KmR6hfnkJqVhASCbSWi3-1" target="bJRQvzsolLCc_rSZNGnh-32">
          <mxGeometry width="50" height="50" relative="1" as="geometry">
            <mxPoint x="160" y="300" as="sourcePoint" />
            <mxPoint x="550" y="460" as="targetPoint" />
          </mxGeometry>
        </mxCell>
        <mxCell id="bJRQvzsolLCc_rSZNGnh-45" value="" style="endArrow=classic;html=1;" edge="1" parent="KmR6hfnkJqVhASCbSWi3-1" target="bJRQvzsolLCc_rSZNGnh-31">
          <mxGeometry width="50" height="50" relative="1" as="geometry">
            <mxPoint x="160" y="230" as="sourcePoint" />
            <mxPoint x="550" y="460" as="targetPoint" />
          </mxGeometry>
        </mxCell>
        <mxCell id="bJRQvzsolLCc_rSZNGnh-60" style="edgeStyle=orthogonalEdgeStyle;rounded=0;orthogonalLoop=1;jettySize=auto;html=1;" edge="1" parent="KmR6hfnkJqVhASCbSWi3-1" source="bJRQvzsolLCc_rSZNGnh-48" target="bJRQvzsolLCc_rSZNGnh-49">
          <mxGeometry relative="1" as="geometry" />
        </mxCell>
        <mxCell id="bJRQvzsolLCc_rSZNGnh-48" value="Printing in Progress" style="rounded=0;whiteSpace=wrap;html=1;" vertex="1" parent="KmR6hfnkJqVhASCbSWi3-1">
          <mxGeometry x="1160" y="670" width="150" height="60" as="geometry" />
        </mxCell>
        <mxCell id="bJRQvzsolLCc_rSZNGnh-49" value="Printing Completed" style="rounded=0;whiteSpace=wrap;html=1;" vertex="1" parent="KmR6hfnkJqVhASCbSWi3-1">
          <mxGeometry x="1160" y="750" width="150" height="60" as="geometry" />
        </mxCell>
        <mxCell id="bJRQvzsolLCc_rSZNGnh-55" style="edgeStyle=orthogonalEdgeStyle;rounded=0;orthogonalLoop=1;jettySize=auto;html=1;" edge="1" parent="KmR6hfnkJqVhASCbSWi3-1" source="bJRQvzsolLCc_rSZNGnh-50" target="bJRQvzsolLCc_rSZNGnh-51">
          <mxGeometry relative="1" as="geometry" />
        </mxCell>
        <mxCell id="2R1bxhX4PakgP03k6btq-39" style="edgeStyle=orthogonalEdgeStyle;rounded=0;orthogonalLoop=1;jettySize=auto;html=1;entryX=1;entryY=0.5;entryDx=0;entryDy=0;fontColor=#FFFFFF;" edge="1" parent="KmR6hfnkJqVhASCbSWi3-1" source="bJRQvzsolLCc_rSZNGnh-50" target="bJRQvzsolLCc_rSZNGnh-31">
          <mxGeometry relative="1" as="geometry">
            <Array as="points">
              <mxPoint x="910" y="470" />
              <mxPoint x="910" y="670" />
              <mxPoint x="430" y="670" />
              <mxPoint x="430" y="230" />
            </Array>
          </mxGeometry>
        </mxCell>
        <mxCell id="bJRQvzsolLCc_rSZNGnh-50" value="See Favorites" style="rounded=0;whiteSpace=wrap;html=1;" vertex="1" parent="KmR6hfnkJqVhASCbSWi3-1">
          <mxGeometry x="730" y="440" width="150" height="60" as="geometry" />
        </mxCell>
        <mxCell id="bJRQvzsolLCc_rSZNGnh-52" style="edgeStyle=orthogonalEdgeStyle;rounded=0;orthogonalLoop=1;jettySize=auto;html=1;entryX=1;entryY=0.5;entryDx=0;entryDy=0;" edge="1" parent="KmR6hfnkJqVhASCbSWi3-1" source="bJRQvzsolLCc_rSZNGnh-51" target="bJRQvzsolLCc_rSZNGnh-9">
          <mxGeometry relative="1" as="geometry" />
        </mxCell>
        <mxCell id="bJRQvzsolLCc_rSZNGnh-51" value="Cancel" style="rounded=0;whiteSpace=wrap;html=1;" vertex="1" parent="KmR6hfnkJqVhASCbSWi3-1">
          <mxGeometry x="730" y="520" width="150" height="60" as="geometry" />
        </mxCell>
        <mxCell id="bJRQvzsolLCc_rSZNGnh-76" style="edgeStyle=orthogonalEdgeStyle;rounded=0;orthogonalLoop=1;jettySize=auto;html=1;exitX=0;exitY=1;exitDx=0;exitDy=0;entryX=0;entryY=0.75;entryDx=0;entryDy=0;" edge="1" parent="KmR6hfnkJqVhASCbSWi3-1" source="bJRQvzsolLCc_rSZNGnh-57" target="bJRQvzsolLCc_rSZNGnh-74">
          <mxGeometry relative="1" as="geometry" />
        </mxCell>
        <mxCell id="bJRQvzsolLCc_rSZNGnh-77" style="edgeStyle=orthogonalEdgeStyle;rounded=0;orthogonalLoop=1;jettySize=auto;html=1;" edge="1" parent="KmR6hfnkJqVhASCbSWi3-1" source="bJRQvzsolLCc_rSZNGnh-57" target="bJRQvzsolLCc_rSZNGnh-73">
          <mxGeometry relative="1" as="geometry" />
        </mxCell>
        <mxCell id="bJRQvzsolLCc_rSZNGnh-57" value="Choose Quantity" style="rounded=0;whiteSpace=wrap;html=1;" vertex="1" parent="KmR6hfnkJqVhASCbSWi3-1">
          <mxGeometry x="980" y="520" width="150" height="50" as="geometry" />
        </mxCell>
        <mxCell id="bJRQvzsolLCc_rSZNGnh-103" style="edgeStyle=orthogonalEdgeStyle;rounded=0;orthogonalLoop=1;jettySize=auto;html=1;entryX=1;entryY=0.25;entryDx=0;entryDy=0;" edge="1" parent="KmR6hfnkJqVhASCbSWi3-1" source="bJRQvzsolLCc_rSZNGnh-61" target="bJRQvzsolLCc_rSZNGnh-5">
          <mxGeometry relative="1" as="geometry">
            <Array as="points">
              <mxPoint x="1410" y="850" />
              <mxPoint x="1410" y="295" />
            </Array>
          </mxGeometry>
        </mxCell>
        <mxCell id="bJRQvzsolLCc_rSZNGnh-61" value="Print Again" style="rounded=0;whiteSpace=wrap;html=1;" vertex="1" parent="KmR6hfnkJqVhASCbSWi3-1">
          <mxGeometry x="1220" y="820" width="150" height="60" as="geometry" />
        </mxCell>
        <mxCell id="bJRQvzsolLCc_rSZNGnh-102" style="edgeStyle=orthogonalEdgeStyle;rounded=0;orthogonalLoop=1;jettySize=auto;html=1;entryX=1;entryY=0.5;entryDx=0;entryDy=0;" edge="1" parent="KmR6hfnkJqVhASCbSWi3-1" source="bJRQvzsolLCc_rSZNGnh-62" target="bJRQvzsolLCc_rSZNGnh-3">
          <mxGeometry relative="1" as="geometry">
            <Array as="points">
              <mxPoint x="1450" y="930" />
              <mxPoint x="1450" y="230" />
            </Array>
          </mxGeometry>
        </mxCell>
        <mxCell id="bJRQvzsolLCc_rSZNGnh-62" value="Main Menu" style="rounded=0;whiteSpace=wrap;html=1;" vertex="1" parent="KmR6hfnkJqVhASCbSWi3-1">
          <mxGeometry x="1220" y="890" width="150" height="60" as="geometry" />
        </mxCell>
        <mxCell id="bJRQvzsolLCc_rSZNGnh-69" value="" style="endArrow=classic;html=1;entryX=0;entryY=0.5;entryDx=0;entryDy=0;" edge="1" parent="KmR6hfnkJqVhASCbSWi3-1" target="bJRQvzsolLCc_rSZNGnh-61">
          <mxGeometry width="50" height="50" relative="1" as="geometry">
            <mxPoint x="1190" y="850" as="sourcePoint" />
            <mxPoint x="1210" y="850" as="targetPoint" />
          </mxGeometry>
        </mxCell>
        <mxCell id="bJRQvzsolLCc_rSZNGnh-71" value="" style="endArrow=classic;html=1;entryX=0;entryY=0.5;entryDx=0;entryDy=0;exitX=0.212;exitY=0.988;exitDx=0;exitDy=0;exitPerimeter=0;" edge="1" parent="KmR6hfnkJqVhASCbSWi3-1" source="bJRQvzsolLCc_rSZNGnh-49" target="bJRQvzsolLCc_rSZNGnh-62">
          <mxGeometry width="50" height="50" relative="1" as="geometry">
            <mxPoint x="840" y="670" as="sourcePoint" />
            <mxPoint x="890" y="620" as="targetPoint" />
            <Array as="points">
              <mxPoint x="1192" y="920" />
            </Array>
          </mxGeometry>
        </mxCell>
        <mxCell id="bJRQvzsolLCc_rSZNGnh-83" style="edgeStyle=orthogonalEdgeStyle;rounded=0;orthogonalLoop=1;jettySize=auto;html=1;" edge="1" parent="KmR6hfnkJqVhASCbSWi3-1" source="bJRQvzsolLCc_rSZNGnh-73" target="bJRQvzsolLCc_rSZNGnh-48">
          <mxGeometry relative="1" as="geometry" />
        </mxCell>
        <mxCell id="bJRQvzsolLCc_rSZNGnh-73" value="Print Now" style="rounded=0;whiteSpace=wrap;html=1;" vertex="1" parent="KmR6hfnkJqVhASCbSWi3-1">
          <mxGeometry x="1160" y="590" width="150" height="60" as="geometry" />
        </mxCell>
        <mxCell id="bJRQvzsolLCc_rSZNGnh-85" style="edgeStyle=orthogonalEdgeStyle;rounded=0;orthogonalLoop=1;jettySize=auto;html=1;entryX=1;entryY=0.75;entryDx=0;entryDy=0;" edge="1" parent="KmR6hfnkJqVhASCbSWi3-1" source="bJRQvzsolLCc_rSZNGnh-74" target="bJRQvzsolLCc_rSZNGnh-5">
          <mxGeometry relative="1" as="geometry">
            <Array as="points">
              <mxPoint x="1075" y="670" />
              <mxPoint x="960" y="670" />
              <mxPoint x="960" y="325" />
            </Array>
          </mxGeometry>
        </mxCell>
        <mxCell id="bJRQvzsolLCc_rSZNGnh-74" value="Continue adding more recipes" style="rounded=0;whiteSpace=wrap;html=1;" vertex="1" parent="KmR6hfnkJqVhASCbSWi3-1">
          <mxGeometry x="1000" y="590" width="150" height="60" as="geometry" />
        </mxCell>
        <mxCell id="bJRQvzsolLCc_rSZNGnh-78" value="Add to Printing Queue" style="rounded=0;whiteSpace=wrap;html=1;" vertex="1" parent="KmR6hfnkJqVhASCbSWi3-1">
          <mxGeometry x="1020" y="445" width="150" height="50" as="geometry" />
        </mxCell>
        <mxCell id="bJRQvzsolLCc_rSZNGnh-82" value="" style="endArrow=classic;html=1;exitX=0.25;exitY=1;exitDx=0;exitDy=0;" edge="1" parent="KmR6hfnkJqVhASCbSWi3-1" source="bJRQvzsolLCc_rSZNGnh-78" target="bJRQvzsolLCc_rSZNGnh-57">
          <mxGeometry width="50" height="50" relative="1" as="geometry">
            <mxPoint x="840" y="520" as="sourcePoint" />
            <mxPoint x="890" y="470" as="targetPoint" />
          </mxGeometry>
        </mxCell>
        <mxCell id="bJRQvzsolLCc_rSZNGnh-92" value="" style="endArrow=classic;html=1;entryX=0.25;entryY=0;entryDx=0;entryDy=0;" edge="1" parent="KmR6hfnkJqVhASCbSWi3-1" source="bJRQvzsolLCc_rSZNGnh-1" target="bJRQvzsolLCc_rSZNGnh-3">
          <mxGeometry width="50" height="50" relative="1" as="geometry">
            <mxPoint x="900" y="690" as="sourcePoint" />
            <mxPoint x="950" y="640" as="targetPoint" />
          </mxGeometry>
        </mxCell>
        <mxCell id="bJRQvzsolLCc_rSZNGnh-100" style="edgeStyle=orthogonalEdgeStyle;rounded=0;orthogonalLoop=1;jettySize=auto;html=1;entryX=0;entryY=0.5;entryDx=0;entryDy=0;" edge="1" parent="KmR6hfnkJqVhASCbSWi3-1" source="bJRQvzsolLCc_rSZNGnh-93" target="bJRQvzsolLCc_rSZNGnh-95">
          <mxGeometry relative="1" as="geometry">
            <Array as="points">
              <mxPoint x="420" y="150" />
              <mxPoint x="420" y="220" />
            </Array>
          </mxGeometry>
        </mxCell>
        <mxCell id="bJRQvzsolLCc_rSZNGnh-93" value="Users" style="rounded=0;whiteSpace=wrap;html=1;" vertex="1" parent="KmR6hfnkJqVhASCbSWi3-1">
          <mxGeometry x="440.2" y="120" width="149.8" height="50" as="geometry" />
        </mxCell>
        <mxCell id="bJRQvzsolLCc_rSZNGnh-95" value="Users1" style="rounded=0;whiteSpace=wrap;html=1;" vertex="1" parent="KmR6hfnkJqVhASCbSWi3-1">
          <mxGeometry x="440.2" y="190" width="79.8" height="60" as="geometry" />
        </mxCell>
        <mxCell id="bJRQvzsolLCc_rSZNGnh-96" value="Users2" style="rounded=0;whiteSpace=wrap;html=1;" vertex="1" parent="KmR6hfnkJqVhASCbSWi3-1">
          <mxGeometry x="450" y="200" width="79.8" height="60" as="geometry" />
        </mxCell>
        <mxCell id="bJRQvzsolLCc_rSZNGnh-97" value="Users2" style="rounded=0;whiteSpace=wrap;html=1;" vertex="1" parent="KmR6hfnkJqVhASCbSWi3-1">
          <mxGeometry x="460.2" y="210" width="79.8" height="60" as="geometry" />
        </mxCell>
        <mxCell id="bJRQvzsolLCc_rSZNGnh-99" style="edgeStyle=orthogonalEdgeStyle;rounded=0;orthogonalLoop=1;jettySize=auto;html=1;entryX=0;entryY=0.5;entryDx=0;entryDy=0;" edge="1" parent="KmR6hfnkJqVhASCbSWi3-1" source="bJRQvzsolLCc_rSZNGnh-98" target="bJRQvzsolLCc_rSZNGnh-1">
          <mxGeometry relative="1" as="geometry">
            <Array as="points">
              <mxPoint x="610" y="250" />
              <mxPoint x="610" y="150" />
            </Array>
          </mxGeometry>
        </mxCell>
        <mxCell id="bJRQvzsolLCc_rSZNGnh-98" value="Users" style="rounded=0;whiteSpace=wrap;html=1;" vertex="1" parent="KmR6hfnkJqVhASCbSWi3-1">
          <mxGeometry x="470" y="220" width="79.8" height="60" as="geometry" />
        </mxCell>
        <mxCell id="bJRQvzsolLCc_rSZNGnh-111" style="edgeStyle=orthogonalEdgeStyle;rounded=0;orthogonalLoop=1;jettySize=auto;html=1;entryX=0;entryY=0.5;entryDx=0;entryDy=0;" edge="1" parent="KmR6hfnkJqVhASCbSWi3-1" source="bJRQvzsolLCc_rSZNGnh-108" target="bJRQvzsolLCc_rSZNGnh-48">
          <mxGeometry relative="1" as="geometry">
            <Array as="points">
              <mxPoint x="400" y="675" />
              <mxPoint x="400" y="700" />
            </Array>
          </mxGeometry>
        </mxCell>
        <mxCell id="bJRQvzsolLCc_rSZNGnh-108" value="Printing Progress" style="rounded=0;whiteSpace=wrap;html=1;" vertex="1" parent="KmR6hfnkJqVhASCbSWi3-1">
          <mxGeometry x="190" y="645" width="150" height="60" as="geometry" />
        </mxCell>
        <mxCell id="bJRQvzsolLCc_rSZNGnh-109" value="" style="endArrow=classic;html=1;entryX=0;entryY=0.5;entryDx=0;entryDy=0;" edge="1" parent="KmR6hfnkJqVhASCbSWi3-1" target="bJRQvzsolLCc_rSZNGnh-108">
          <mxGeometry width="50" height="50" relative="1" as="geometry">
            <mxPoint x="160" y="675" as="sourcePoint" />
            <mxPoint x="510" y="440" as="targetPoint" />
          </mxGeometry>
        </mxCell>
        <mxCell id="bJRQvzsolLCc_rSZNGnh-113" value="" style="endArrow=classic;startArrow=classic;html=1;entryX=0;entryY=0.5;entryDx=0;entryDy=0;" edge="1" parent="KmR6hfnkJqVhASCbSWi3-1" target="bJRQvzsolLCc_rSZNGnh-93">
          <mxGeometry width="50" height="50" relative="1" as="geometry">
            <mxPoint x="342" y="145" as="sourcePoint" />
            <mxPoint x="480" y="360" as="targetPoint" />
          </mxGeometry>
        </mxCell>
        <mxCell id="bJRQvzsolLCc_rSZNGnh-114" value="" style="endArrow=classic;startArrow=classic;html=1;entryX=0.6;entryY=0.017;entryDx=0;entryDy=0;entryPerimeter=0;" edge="1" parent="KmR6hfnkJqVhASCbSWi3-1" source="bJRQvzsolLCc_rSZNGnh-2" target="bJRQvzsolLCc_rSZNGnh-1">
          <mxGeometry width="50" height="50" relative="1" as="geometry">
            <mxPoint x="430" y="410" as="sourcePoint" />
            <mxPoint x="480" y="360" as="targetPoint" />
            <Array as="points">
              <mxPoint x="265" y="20" />
              <mxPoint x="750" y="20" />
            </Array>
          </mxGeometry>
        </mxCell>
        <mxCell id="bJRQvzsolLCc_rSZNGnh-116" value="" style="endArrow=classic;startArrow=classic;html=1;exitX=1;exitY=0.75;exitDx=0;exitDy=0;entryX=0;entryY=0.5;entryDx=0;entryDy=0;" edge="1" parent="KmR6hfnkJqVhASCbSWi3-1" source="bJRQvzsolLCc_rSZNGnh-2" target="bJRQvzsolLCc_rSZNGnh-5">
          <mxGeometry width="50" height="50" relative="1" as="geometry">
            <mxPoint x="520" y="420" as="sourcePoint" />
            <mxPoint x="570" y="370" as="targetPoint" />
            <Array as="points">
              <mxPoint x="390" y="165" />
              <mxPoint x="390" y="310" />
            </Array>
          </mxGeometry>
        </mxCell>
        <mxCell id="Da19G1KepFY5_RqIi6cU-4" style="edgeStyle=orthogonalEdgeStyle;rounded=0;orthogonalLoop=1;jettySize=auto;html=1;" edge="1" parent="KmR6hfnkJqVhASCbSWi3-1" source="Da19G1KepFY5_RqIi6cU-0" target="Da19G1KepFY5_RqIi6cU-1">
          <mxGeometry relative="1" as="geometry">
            <Array as="points">
              <mxPoint x="1190" y="60" />
            </Array>
          </mxGeometry>
        </mxCell>
        <mxCell id="Da19G1KepFY5_RqIi6cU-0" value="Register" style="rounded=0;whiteSpace=wrap;html=1;" vertex="1" parent="KmR6hfnkJqVhASCbSWi3-1">
          <mxGeometry x="1020" y="40" width="140" height="60" as="geometry" />
        </mxCell>
        <mxCell id="Da19G1KepFY5_RqIi6cU-6" style="edgeStyle=orthogonalEdgeStyle;rounded=0;orthogonalLoop=1;jettySize=auto;html=1;entryX=1;entryY=0.5;entryDx=0;entryDy=0;" edge="1" parent="KmR6hfnkJqVhASCbSWi3-1" source="Da19G1KepFY5_RqIi6cU-1" target="Da19G1KepFY5_RqIi6cU-3">
          <mxGeometry relative="1" as="geometry" />
        </mxCell>
        <mxCell id="Da19G1KepFY5_RqIi6cU-1" value="User Fills Form" style="rounded=0;whiteSpace=wrap;html=1;" vertex="1" parent="KmR6hfnkJqVhASCbSWi3-1">
          <mxGeometry x="1130" y="120" width="120" height="60" as="geometry" />
        </mxCell>
        <mxCell id="Da19G1KepFY5_RqIi6cU-7" style="edgeStyle=orthogonalEdgeStyle;rounded=0;orthogonalLoop=1;jettySize=auto;html=1;" edge="1" parent="KmR6hfnkJqVhASCbSWi3-1" source="Da19G1KepFY5_RqIi6cU-3" target="bJRQvzsolLCc_rSZNGnh-1">
          <mxGeometry relative="1" as="geometry" />
        </mxCell>
        <mxCell id="Da19G1KepFY5_RqIi6cU-3" value="Welcome Screen" style="rounded=0;whiteSpace=wrap;html=1;" vertex="1" parent="KmR6hfnkJqVhASCbSWi3-1">
          <mxGeometry x="960" y="120" width="120" height="60" as="geometry" />
        </mxCell>
        <mxCell id="Da19G1KepFY5_RqIi6cU-9" style="edgeStyle=orthogonalEdgeStyle;rounded=0;orthogonalLoop=1;jettySize=auto;html=1;" edge="1" parent="KmR6hfnkJqVhASCbSWi3-1" source="Da19G1KepFY5_RqIi6cU-8" target="bJRQvzsolLCc_rSZNGnh-0">
          <mxGeometry relative="1" as="geometry" />
        </mxCell>
        <mxCell id="Da19G1KepFY5_RqIi6cU-10" style="edgeStyle=orthogonalEdgeStyle;rounded=0;orthogonalLoop=1;jettySize=auto;html=1;" edge="1" parent="KmR6hfnkJqVhASCbSWi3-1" source="Da19G1KepFY5_RqIi6cU-8" target="Da19G1KepFY5_RqIi6cU-0">
          <mxGeometry relative="1" as="geometry" />
        </mxCell>
        <mxCell id="Da19G1KepFY5_RqIi6cU-8" value="FoodBot Mini&lt;br&gt;Start screen" style="rounded=0;whiteSpace=wrap;html=1;" vertex="1" parent="KmR6hfnkJqVhASCbSWi3-1">
          <mxGeometry x="720" y="-70" width="140" height="60" as="geometry" />
        </mxCell>
        <mxCell id="2R1bxhX4PakgP03k6btq-1" value="Account&amp;nbsp;&lt;br&gt;Information &amp;amp;&lt;br&gt;Preferences" style="rounded=0;whiteSpace=wrap;html=1;" vertex="1" parent="KmR6hfnkJqVhASCbSWi3-1">
          <mxGeometry x="470" y="790" width="150" height="60" as="geometry" />
        </mxCell>
        <mxCell id="2R1bxhX4PakgP03k6btq-19" style="edgeStyle=orthogonalEdgeStyle;rounded=0;orthogonalLoop=1;jettySize=auto;html=1;fontColor=#FFFFFF;" edge="1" parent="KmR6hfnkJqVhASCbSWi3-1" source="2R1bxhX4PakgP03k6btq-4" target="2R1bxhX4PakgP03k6btq-17">
          <mxGeometry relative="1" as="geometry" />
        </mxCell>
        <mxCell id="2R1bxhX4PakgP03k6btq-20" style="edgeStyle=orthogonalEdgeStyle;rounded=0;orthogonalLoop=1;jettySize=auto;html=1;fontColor=#FFFFFF;" edge="1" parent="KmR6hfnkJqVhASCbSWi3-1" source="2R1bxhX4PakgP03k6btq-4" target="2R1bxhX4PakgP03k6btq-18">
          <mxGeometry relative="1" as="geometry" />
        </mxCell>
        <mxCell id="2R1bxhX4PakgP03k6btq-4" value="Edit Settings" style="rounded=0;whiteSpace=wrap;html=1;" vertex="1" parent="KmR6hfnkJqVhASCbSWi3-1">
          <mxGeometry x="660" y="790" width="150" height="50" as="geometry" />
        </mxCell>
        <mxCell id="2R1bxhX4PakgP03k6btq-5" value="" style="endArrow=none;html=1;fontColor=#FFFFFF;exitX=1;exitY=0.5;exitDx=0;exitDy=0;" edge="1" parent="KmR6hfnkJqVhASCbSWi3-1" source="bJRQvzsolLCc_rSZNGnh-30">
          <mxGeometry width="50" height="50" relative="1" as="geometry">
            <mxPoint x="660" y="820" as="sourcePoint" />
            <mxPoint x="740" y="770" as="targetPoint" />
            <Array as="points">
              <mxPoint x="460" y="450" />
              <mxPoint x="460" y="770" />
            </Array>
          </mxGeometry>
        </mxCell>
        <mxCell id="2R1bxhX4PakgP03k6btq-6" value="" style="endArrow=classic;html=1;fontColor=#FFFFFF;" edge="1" parent="KmR6hfnkJqVhASCbSWi3-1">
          <mxGeometry width="50" height="50" relative="1" as="geometry">
            <mxPoint x="740" y="770" as="sourcePoint" />
            <mxPoint x="740" y="790" as="targetPoint" />
          </mxGeometry>
        </mxCell>
        <mxCell id="2R1bxhX4PakgP03k6btq-9" value="" style="endArrow=classic;html=1;fontColor=#FFFFFF;" edge="1" parent="KmR6hfnkJqVhASCbSWi3-1" target="2R1bxhX4PakgP03k6btq-1">
          <mxGeometry width="50" height="50" relative="1" as="geometry">
            <mxPoint x="545" y="770" as="sourcePoint" />
            <mxPoint x="710" y="770" as="targetPoint" />
          </mxGeometry>
        </mxCell>
        <mxCell id="2R1bxhX4PakgP03k6btq-31" style="edgeStyle=orthogonalEdgeStyle;rounded=0;orthogonalLoop=1;jettySize=auto;html=1;entryX=0;entryY=0.5;entryDx=0;entryDy=0;fontColor=#FFFFFF;" edge="1" parent="KmR6hfnkJqVhASCbSWi3-1" source="2R1bxhX4PakgP03k6btq-10" target="2R1bxhX4PakgP03k6btq-29">
          <mxGeometry relative="1" as="geometry" />
        </mxCell>
        <mxCell id="2R1bxhX4PakgP03k6btq-32" style="edgeStyle=orthogonalEdgeStyle;rounded=0;orthogonalLoop=1;jettySize=auto;html=1;fontColor=#FFFFFF;" edge="1" parent="KmR6hfnkJqVhASCbSWi3-1" source="2R1bxhX4PakgP03k6btq-10" target="2R1bxhX4PakgP03k6btq-30">
          <mxGeometry relative="1" as="geometry" />
        </mxCell>
        <mxCell id="2R1bxhX4PakgP03k6btq-10" value="Change Image" style="rounded=0;whiteSpace=wrap;html=1;" vertex="1" parent="KmR6hfnkJqVhASCbSWi3-1">
          <mxGeometry x="860" y="1210" width="150" height="60" as="geometry" />
        </mxCell>
        <mxCell id="2R1bxhX4PakgP03k6btq-11" value="Auto Location On/Off" style="rounded=0;whiteSpace=wrap;html=1;" vertex="1" parent="KmR6hfnkJqVhASCbSWi3-1">
          <mxGeometry x="860" y="930" width="150" height="60" as="geometry" />
        </mxCell>
        <mxCell id="2R1bxhX4PakgP03k6btq-12" style="edgeStyle=orthogonalEdgeStyle;rounded=0;orthogonalLoop=1;jettySize=auto;html=1;exitX=0.5;exitY=1;exitDx=0;exitDy=0;fontColor=#FFFFFF;" edge="1" parent="KmR6hfnkJqVhASCbSWi3-1" source="2R1bxhX4PakgP03k6btq-11" target="2R1bxhX4PakgP03k6btq-11">
          <mxGeometry relative="1" as="geometry" />
        </mxCell>
        <mxCell id="2R1bxhX4PakgP03k6btq-13" value="Voice Recognition&lt;br&gt;On/Off" style="rounded=0;whiteSpace=wrap;html=1;" vertex="1" parent="KmR6hfnkJqVhASCbSWi3-1">
          <mxGeometry x="860" y="1000" width="150" height="60" as="geometry" />
        </mxCell>
        <mxCell id="2R1bxhX4PakgP03k6btq-14" value="Wifi: Connected&lt;br&gt;&amp;nbsp; Disconnect" style="rounded=0;whiteSpace=wrap;html=1;" vertex="1" parent="KmR6hfnkJqVhASCbSWi3-1">
          <mxGeometry x="860" y="1070" width="150" height="60" as="geometry" />
        </mxCell>
        <mxCell id="2R1bxhX4PakgP03k6btq-15" value="Bluetooth: Connected&lt;br&gt;Disconnect" style="rounded=0;whiteSpace=wrap;html=1;" vertex="1" parent="KmR6hfnkJqVhASCbSWi3-1">
          <mxGeometry x="860" y="1140" width="150" height="60" as="geometry" />
        </mxCell>
        <mxCell id="2R1bxhX4PakgP03k6btq-22" style="edgeStyle=orthogonalEdgeStyle;rounded=0;orthogonalLoop=1;jettySize=auto;html=1;entryX=0;entryY=0.75;entryDx=0;entryDy=0;fontColor=#FFFFFF;" edge="1" parent="KmR6hfnkJqVhASCbSWi3-1" source="2R1bxhX4PakgP03k6btq-17" target="2R1bxhX4PakgP03k6btq-21">
          <mxGeometry relative="1" as="geometry">
            <Array as="points">
              <mxPoint x="650" y="890" />
              <mxPoint x="650" y="985" />
            </Array>
          </mxGeometry>
        </mxCell>
        <mxCell id="2R1bxhX4PakgP03k6btq-35" style="edgeStyle=orthogonalEdgeStyle;rounded=0;orthogonalLoop=1;jettySize=auto;html=1;fontColor=#FFFFFF;" edge="1" parent="KmR6hfnkJqVhASCbSWi3-1" source="2R1bxhX4PakgP03k6btq-17" target="2R1bxhX4PakgP03k6btq-33">
          <mxGeometry relative="1" as="geometry">
            <Array as="points">
              <mxPoint x="640" y="890" />
              <mxPoint x="640" y="1320" />
            </Array>
          </mxGeometry>
        </mxCell>
        <mxCell id="2R1bxhX4PakgP03k6btq-36" style="edgeStyle=orthogonalEdgeStyle;rounded=0;orthogonalLoop=1;jettySize=auto;html=1;fontColor=#FFFFFF;" edge="1" parent="KmR6hfnkJqVhASCbSWi3-1" source="2R1bxhX4PakgP03k6btq-17" target="2R1bxhX4PakgP03k6btq-34">
          <mxGeometry relative="1" as="geometry">
            <Array as="points">
              <mxPoint x="620" y="890" />
              <mxPoint x="620" y="1260" />
              <mxPoint x="850" y="1260" />
            </Array>
          </mxGeometry>
        </mxCell>
        <mxCell id="2R1bxhX4PakgP03k6btq-17" value="Account Information&lt;br&gt;Form" style="rounded=0;whiteSpace=wrap;html=1;" vertex="1" parent="KmR6hfnkJqVhASCbSWi3-1">
          <mxGeometry x="660" y="860" width="150" height="60" as="geometry" />
        </mxCell>
        <mxCell id="2R1bxhX4PakgP03k6btq-37" style="edgeStyle=orthogonalEdgeStyle;rounded=0;orthogonalLoop=1;jettySize=auto;html=1;entryX=0.613;entryY=1.024;entryDx=0;entryDy=0;entryPerimeter=0;fontColor=#FFFFFF;" edge="1" parent="KmR6hfnkJqVhASCbSWi3-1" source="2R1bxhX4PakgP03k6btq-18" target="2R1bxhX4PakgP03k6btq-33">
          <mxGeometry relative="1" as="geometry">
            <Array as="points">
              <mxPoint x="1050" y="890" />
              <mxPoint x="1050" y="1080" />
              <mxPoint x="1220" y="1080" />
              <mxPoint x="1220" y="1420" />
              <mxPoint x="752" y="1420" />
            </Array>
          </mxGeometry>
        </mxCell>
        <mxCell id="2R1bxhX4PakgP03k6btq-38" style="edgeStyle=orthogonalEdgeStyle;rounded=0;orthogonalLoop=1;jettySize=auto;html=1;fontColor=#FFFFFF;" edge="1" parent="KmR6hfnkJqVhASCbSWi3-1" source="2R1bxhX4PakgP03k6btq-18" target="2R1bxhX4PakgP03k6btq-34">
          <mxGeometry relative="1" as="geometry">
            <Array as="points">
              <mxPoint x="1080" y="890" />
              <mxPoint x="1080" y="1060" />
              <mxPoint x="1250" y="1060" />
              <mxPoint x="1250" y="1320" />
            </Array>
          </mxGeometry>
        </mxCell>
        <mxCell id="2R1bxhX4PakgP03k6btq-18" value="Preferences" style="rounded=0;whiteSpace=wrap;html=1;" vertex="1" parent="KmR6hfnkJqVhASCbSWi3-1">
          <mxGeometry x="820.2" y="860" width="150" height="60" as="geometry" />
        </mxCell>
        <mxCell id="2R1bxhX4PakgP03k6btq-21" value="Delete Account" style="rounded=0;whiteSpace=wrap;html=1;" vertex="1" parent="KmR6hfnkJqVhASCbSWi3-1">
          <mxGeometry x="680" y="940" width="130" height="60" as="geometry" />
        </mxCell>
        <mxCell id="2R1bxhX4PakgP03k6btq-23" value="" style="endArrow=none;html=1;fontColor=#FFFFFF;entryX=0.119;entryY=1.021;entryDx=0;entryDy=0;entryPerimeter=0;" edge="1" parent="KmR6hfnkJqVhASCbSWi3-1" target="2R1bxhX4PakgP03k6btq-18">
          <mxGeometry width="50" height="50" relative="1" as="geometry">
            <mxPoint x="838" y="1240" as="sourcePoint" />
            <mxPoint x="750" y="930" as="targetPoint" />
          </mxGeometry>
        </mxCell>
        <mxCell id="2R1bxhX4PakgP03k6btq-24" value="" style="endArrow=classic;html=1;fontColor=#FFFFFF;entryX=0;entryY=0.5;entryDx=0;entryDy=0;" edge="1" parent="KmR6hfnkJqVhASCbSWi3-1" target="2R1bxhX4PakgP03k6btq-10">
          <mxGeometry width="50" height="50" relative="1" as="geometry">
            <mxPoint x="840" y="1240" as="sourcePoint" />
            <mxPoint x="750" y="930" as="targetPoint" />
          </mxGeometry>
        </mxCell>
        <mxCell id="2R1bxhX4PakgP03k6btq-25" value="" style="endArrow=classic;html=1;fontColor=#FFFFFF;entryX=0;entryY=0.5;entryDx=0;entryDy=0;" edge="1" parent="KmR6hfnkJqVhASCbSWi3-1" target="2R1bxhX4PakgP03k6btq-15">
          <mxGeometry width="50" height="50" relative="1" as="geometry">
            <mxPoint x="840" y="1170" as="sourcePoint" />
            <mxPoint x="750" y="930" as="targetPoint" />
          </mxGeometry>
        </mxCell>
        <mxCell id="2R1bxhX4PakgP03k6btq-26" value="" style="endArrow=classic;html=1;fontColor=#FFFFFF;entryX=0;entryY=0.5;entryDx=0;entryDy=0;" edge="1" parent="KmR6hfnkJqVhASCbSWi3-1" target="2R1bxhX4PakgP03k6btq-14">
          <mxGeometry width="50" height="50" relative="1" as="geometry">
            <mxPoint x="840" y="1100" as="sourcePoint" />
            <mxPoint x="750" y="930" as="targetPoint" />
          </mxGeometry>
        </mxCell>
        <mxCell id="2R1bxhX4PakgP03k6btq-27" value="" style="endArrow=classic;html=1;fontColor=#FFFFFF;entryX=0;entryY=0.5;entryDx=0;entryDy=0;" edge="1" parent="KmR6hfnkJqVhASCbSWi3-1" target="2R1bxhX4PakgP03k6btq-13">
          <mxGeometry width="50" height="50" relative="1" as="geometry">
            <mxPoint x="840" y="1030" as="sourcePoint" />
            <mxPoint x="750" y="930" as="targetPoint" />
          </mxGeometry>
        </mxCell>
        <mxCell id="2R1bxhX4PakgP03k6btq-28" value="" style="endArrow=classic;html=1;fontColor=#FFFFFF;entryX=0;entryY=0.5;entryDx=0;entryDy=0;" edge="1" parent="KmR6hfnkJqVhASCbSWi3-1" target="2R1bxhX4PakgP03k6btq-11">
          <mxGeometry width="50" height="50" relative="1" as="geometry">
            <mxPoint x="840" y="960" as="sourcePoint" />
            <mxPoint x="750" y="930" as="targetPoint" />
          </mxGeometry>
        </mxCell>
        <mxCell id="2R1bxhX4PakgP03k6btq-29" value="Upload" style="rounded=0;whiteSpace=wrap;html=1;" vertex="1" parent="KmR6hfnkJqVhASCbSWi3-1">
          <mxGeometry x="1050" y="1140" width="150" height="60" as="geometry" />
        </mxCell>
        <mxCell id="2R1bxhX4PakgP03k6btq-30" value="Choose from Icons" style="rounded=0;whiteSpace=wrap;html=1;" vertex="1" parent="KmR6hfnkJqVhASCbSWi3-1">
          <mxGeometry x="1050" y="1215" width="150" height="60" as="geometry" />
        </mxCell>
        <mxCell id="2R1bxhX4PakgP03k6btq-33" value="Save Changes" style="rounded=0;whiteSpace=wrap;html=1;" vertex="1" parent="KmR6hfnkJqVhASCbSWi3-1">
          <mxGeometry x="660" y="1290" width="150" height="60" as="geometry" />
        </mxCell>
        <mxCell id="2R1bxhX4PakgP03k6btq-34" value="Cancel" style="rounded=0;whiteSpace=wrap;html=1;" vertex="1" parent="KmR6hfnkJqVhASCbSWi3-1">
          <mxGeometry x="830" y="1290" width="150" height="60" as="geometry" />
        </mxCell>
        <mxCell id="2R1bxhX4PakgP03k6btq-41" value="Quantity" style="rounded=0;whiteSpace=wrap;html=1;" vertex="1" parent="KmR6hfnkJqVhASCbSWi3-1">
          <mxGeometry x="-120" y="515" width="150" height="60" as="geometry" />
        </mxCell>
        <mxCell id="2R1bxhX4PakgP03k6btq-43" value="Print" style="rounded=0;whiteSpace=wrap;html=1;" vertex="1" parent="KmR6hfnkJqVhASCbSWi3-1">
          <mxGeometry x="-120" y="600" width="150" height="60" as="geometry" />
        </mxCell>
        <mxCell id="2R1bxhX4PakgP03k6btq-45" value="Running Low" style="rounded=0;whiteSpace=wrap;html=1;" vertex="1" parent="KmR6hfnkJqVhASCbSWi3-1">
          <mxGeometry x="-140" y="280" width="150" height="60" as="geometry" />
        </mxCell>
        <mxCell id="2R1bxhX4PakgP03k6btq-46" value="Available" style="rounded=0;whiteSpace=wrap;html=1;" vertex="1" parent="KmR6hfnkJqVhASCbSWi3-1">
          <mxGeometry x="-140" y="200" width="150" height="60" as="geometry" />
        </mxCell>
        <mxCell id="2R1bxhX4PakgP03k6btq-47" value="Out" style="rounded=0;whiteSpace=wrap;html=1;" vertex="1" parent="KmR6hfnkJqVhASCbSWi3-1">
          <mxGeometry x="-140" y="360" width="150" height="60" as="geometry" />
        </mxCell>
      </root>
    </mxGraphModel>
  </diagram>
  <diagram id="L9ISaFAZq46-ed6UgayT" name="Page-3">
    <mxGraphModel dx="1383" dy="2011" grid="1" gridSize="10" guides="1" tooltips="1" connect="1" arrows="1" fold="1" page="1" pageScale="1" pageWidth="1100" pageHeight="850" math="0" shadow="0">
      <root>
        <mxCell id="ZQFnYJXDpmsfhzi_7xz_-0" />
        <mxCell id="ZQFnYJXDpmsfhzi_7xz_-1" parent="ZQFnYJXDpmsfhzi_7xz_-0" />
        <mxCell id="hOeiYGEEd2lNkrISIDKO-1" value="" style="rounded=1;whiteSpace=wrap;html=1;fillColor=#d5e8d4;strokeColor=#82b366;" vertex="1" parent="ZQFnYJXDpmsfhzi_7xz_-1">
          <mxGeometry x="77.5" y="-820" width="190" height="250" as="geometry" />
        </mxCell>
        <mxCell id="hOeiYGEEd2lNkrISIDKO-0" value="&lt;b&gt;FoodBot Mini&lt;br&gt;start screen&lt;/b&gt;" style="rounded=0;whiteSpace=wrap;html=1;fillColor=#d5e8d4;strokeColor=#82b366;" vertex="1" parent="ZQFnYJXDpmsfhzi_7xz_-1">
          <mxGeometry x="120" y="-790" width="105" height="50" as="geometry" />
        </mxCell>
        <mxCell id="hOeiYGEEd2lNkrISIDKO-3" value="LogIn" style="rounded=0;whiteSpace=wrap;html=1;strokeColor=none;" vertex="1" parent="ZQFnYJXDpmsfhzi_7xz_-1">
          <mxGeometry x="120" y="-720" width="105" height="50" as="geometry" />
        </mxCell>
        <mxCell id="hOeiYGEEd2lNkrISIDKO-4" value="Register" style="rounded=0;whiteSpace=wrap;html=1;strokeColor=none;" vertex="1" parent="ZQFnYJXDpmsfhzi_7xz_-1">
          <mxGeometry x="120" y="-650" width="105" height="50" as="geometry" />
        </mxCell>
        <mxCell id="hOeiYGEEd2lNkrISIDKO-27" value="" style="group" vertex="1" connectable="0" parent="ZQFnYJXDpmsfhzi_7xz_-1">
          <mxGeometry x="500" y="-820" width="190" height="240" as="geometry" />
        </mxCell>
        <mxCell id="hOeiYGEEd2lNkrISIDKO-14" value="" style="rounded=1;whiteSpace=wrap;html=1;fillColor=#e1d5e7;strokeColor=#9673a6;" vertex="1" parent="hOeiYGEEd2lNkrISIDKO-27">
          <mxGeometry width="190" height="240" as="geometry" />
        </mxCell>
        <mxCell id="hOeiYGEEd2lNkrISIDKO-15" value="&lt;b&gt;Register&lt;/b&gt;" style="rounded=0;whiteSpace=wrap;html=1;fillColor=#e1d5e7;strokeColor=#9673a6;" vertex="1" parent="hOeiYGEEd2lNkrISIDKO-27">
          <mxGeometry x="42.5" y="30" width="105" height="50" as="geometry" />
        </mxCell>
        <mxCell id="hOeiYGEEd2lNkrISIDKO-16" value="Form" style="rounded=0;whiteSpace=wrap;html=1;strokeColor=none;" vertex="1" parent="hOeiYGEEd2lNkrISIDKO-27">
          <mxGeometry x="42.5" y="100" width="105" height="50" as="geometry" />
        </mxCell>
        <mxCell id="hOeiYGEEd2lNkrISIDKO-17" value="Register" style="rounded=0;whiteSpace=wrap;html=1;strokeColor=none;" vertex="1" parent="hOeiYGEEd2lNkrISIDKO-27">
          <mxGeometry x="42.5" y="160" width="105" height="50" as="geometry" />
        </mxCell>
        <mxCell id="hOeiYGEEd2lNkrISIDKO-28" value="" style="group" vertex="1" connectable="0" parent="ZQFnYJXDpmsfhzi_7xz_-1">
          <mxGeometry x="290" y="-820" width="190" height="360" as="geometry" />
        </mxCell>
        <mxCell id="hOeiYGEEd2lNkrISIDKO-6" value="" style="rounded=1;whiteSpace=wrap;html=1;fillColor=#dae8fc;strokeColor=#6c8ebf;" vertex="1" parent="hOeiYGEEd2lNkrISIDKO-28">
          <mxGeometry width="190" height="360" as="geometry" />
        </mxCell>
        <mxCell id="hOeiYGEEd2lNkrISIDKO-7" value="&lt;b&gt;LogIn&lt;/b&gt;" style="rounded=0;whiteSpace=wrap;html=1;fillColor=#dae8fc;strokeColor=#6c8ebf;" vertex="1" parent="hOeiYGEEd2lNkrISIDKO-28">
          <mxGeometry x="42.5" y="30" width="105" height="50" as="geometry" />
        </mxCell>
        <mxCell id="hOeiYGEEd2lNkrISIDKO-8" value="LogIn button" style="rounded=0;whiteSpace=wrap;html=1;strokeColor=none;" vertex="1" parent="hOeiYGEEd2lNkrISIDKO-28">
          <mxGeometry x="42.5" y="160" width="105" height="50" as="geometry" />
        </mxCell>
        <mxCell id="hOeiYGEEd2lNkrISIDKO-9" value="Register" style="rounded=0;whiteSpace=wrap;html=1;strokeColor=none;" vertex="1" parent="hOeiYGEEd2lNkrISIDKO-28">
          <mxGeometry x="42.5" y="280" width="105" height="50" as="geometry" />
        </mxCell>
        <mxCell id="hOeiYGEEd2lNkrISIDKO-10" value="Forgot Password" style="rounded=0;whiteSpace=wrap;html=1;strokeColor=none;" vertex="1" parent="hOeiYGEEd2lNkrISIDKO-28">
          <mxGeometry x="42.5" y="220" width="105" height="50" as="geometry" />
        </mxCell>
        <mxCell id="hOeiYGEEd2lNkrISIDKO-13" value="Form" style="rounded=0;whiteSpace=wrap;html=1;strokeColor=none;" vertex="1" parent="hOeiYGEEd2lNkrISIDKO-28">
          <mxGeometry x="42.5" y="100" width="105" height="50" as="geometry" />
        </mxCell>
        <mxCell id="hOeiYGEEd2lNkrISIDKO-65" value="" style="group" vertex="1" connectable="0" parent="ZQFnYJXDpmsfhzi_7xz_-1">
          <mxGeometry x="730" y="-820" width="190" height="470" as="geometry" />
        </mxCell>
        <mxCell id="hOeiYGEEd2lNkrISIDKO-31" value="" style="rounded=1;whiteSpace=wrap;html=1;fillColor=#ffe6cc;strokeColor=#d79b00;" vertex="1" parent="hOeiYGEEd2lNkrISIDKO-65">
          <mxGeometry width="190" height="350" as="geometry" />
        </mxCell>
        <mxCell id="hOeiYGEEd2lNkrISIDKO-32" value="&lt;b&gt;Users&lt;/b&gt;&lt;br&gt;(Switch users)" style="rounded=0;whiteSpace=wrap;html=1;fillColor=#ffe6cc;strokeColor=#d79b00;" vertex="1" parent="hOeiYGEEd2lNkrISIDKO-65">
          <mxGeometry x="42.5" y="30" width="105" height="50" as="geometry" />
        </mxCell>
        <mxCell id="hOeiYGEEd2lNkrISIDKO-33" value="User1" style="rounded=0;whiteSpace=wrap;html=1;strokeColor=none;" vertex="1" parent="hOeiYGEEd2lNkrISIDKO-65">
          <mxGeometry x="42.5" y="100" width="105" height="50" as="geometry" />
        </mxCell>
        <mxCell id="hOeiYGEEd2lNkrISIDKO-34" value="User2" style="rounded=0;whiteSpace=wrap;html=1;strokeColor=none;" vertex="1" parent="hOeiYGEEd2lNkrISIDKO-65">
          <mxGeometry x="42.5" y="160" width="105" height="50" as="geometry" />
        </mxCell>
        <mxCell id="hOeiYGEEd2lNkrISIDKO-35" value="User3" style="rounded=0;whiteSpace=wrap;html=1;strokeColor=none;" vertex="1" parent="hOeiYGEEd2lNkrISIDKO-65">
          <mxGeometry x="42.5" y="220" width="105" height="50" as="geometry" />
        </mxCell>
        <mxCell id="hOeiYGEEd2lNkrISIDKO-36" value="User4" style="rounded=0;whiteSpace=wrap;html=1;strokeColor=none;" vertex="1" parent="hOeiYGEEd2lNkrISIDKO-65">
          <mxGeometry x="42.5" y="280" width="105" height="50" as="geometry" />
        </mxCell>
        <mxCell id="hOeiYGEEd2lNkrISIDKO-70" value="" style="rounded=1;whiteSpace=wrap;html=1;fillColor=#fad9d5;strokeColor=#ae4132;" vertex="1" parent="ZQFnYJXDpmsfhzi_7xz_-1">
          <mxGeometry x="1440" y="-820" width="190" height="430" as="geometry" />
        </mxCell>
        <mxCell id="hOeiYGEEd2lNkrISIDKO-71" value="&lt;b&gt;Favorites&lt;/b&gt;" style="rounded=0;whiteSpace=wrap;html=1;fillColor=#fad9d5;strokeColor=#ae4132;" vertex="1" parent="ZQFnYJXDpmsfhzi_7xz_-1">
          <mxGeometry x="1482.5" y="-790" width="105" height="50" as="geometry" />
        </mxCell>
        <mxCell id="hOeiYGEEd2lNkrISIDKO-72" value="Recipe 1" style="rounded=0;whiteSpace=wrap;html=1;strokeColor=none;" vertex="1" parent="ZQFnYJXDpmsfhzi_7xz_-1">
          <mxGeometry x="1482.5" y="-720" width="105" height="50" as="geometry" />
        </mxCell>
        <mxCell id="hOeiYGEEd2lNkrISIDKO-73" value="Recipe 2" style="rounded=0;whiteSpace=wrap;html=1;strokeColor=none;" vertex="1" parent="ZQFnYJXDpmsfhzi_7xz_-1">
          <mxGeometry x="1482.5" y="-660" width="105" height="50" as="geometry" />
        </mxCell>
        <mxCell id="hOeiYGEEd2lNkrISIDKO-74" value="Recipe 3" style="rounded=0;whiteSpace=wrap;html=1;strokeColor=none;" vertex="1" parent="ZQFnYJXDpmsfhzi_7xz_-1">
          <mxGeometry x="1482.5" y="-600" width="105" height="50" as="geometry" />
        </mxCell>
        <mxCell id="hOeiYGEEd2lNkrISIDKO-75" value="Edit Favorites" style="rounded=0;whiteSpace=wrap;html=1;strokeColor=none;" vertex="1" parent="ZQFnYJXDpmsfhzi_7xz_-1">
          <mxGeometry x="1482.5" y="-520" width="105" height="50" as="geometry" />
        </mxCell>
        <mxCell id="oK5Izi5BsoriWey2qque-1" value="" style="rounded=1;whiteSpace=wrap;html=1;fillColor=#fad9d5;strokeColor=#ae4132;" vertex="1" parent="ZQFnYJXDpmsfhzi_7xz_-1">
          <mxGeometry x="1440" y="-360" width="190" height="290" as="geometry" />
        </mxCell>
        <mxCell id="oK5Izi5BsoriWey2qque-2" value="&lt;b&gt;Edit Favorites&lt;/b&gt;" style="rounded=0;whiteSpace=wrap;html=1;fillColor=#fad9d5;strokeColor=#ae4132;" vertex="1" parent="ZQFnYJXDpmsfhzi_7xz_-1">
          <mxGeometry x="1482.5" y="-330" width="105" height="50" as="geometry" />
        </mxCell>
        <mxCell id="oK5Izi5BsoriWey2qque-3" value="Remove Recipe&amp;nbsp; (-)" style="rounded=0;whiteSpace=wrap;html=1;strokeColor=none;" vertex="1" parent="ZQFnYJXDpmsfhzi_7xz_-1">
          <mxGeometry x="1476.25" y="-270" width="117.5" height="50" as="geometry" />
        </mxCell>
        <mxCell id="oK5Izi5BsoriWey2qque-6" value="Undo" style="rounded=0;whiteSpace=wrap;html=1;strokeColor=none;" vertex="1" parent="ZQFnYJXDpmsfhzi_7xz_-1">
          <mxGeometry x="1482.5" y="-210" width="107.5" height="50" as="geometry" />
        </mxCell>
        <mxCell id="hOeiYGEEd2lNkrISIDKO-20" value="" style="rounded=1;whiteSpace=wrap;html=1;fillColor=#fff2cc;strokeColor=#d6b656;" vertex="1" parent="ZQFnYJXDpmsfhzi_7xz_-1">
          <mxGeometry x="960" y="-820" width="190" height="350" as="geometry" />
        </mxCell>
        <mxCell id="hOeiYGEEd2lNkrISIDKO-21" value="&lt;b&gt;Search&lt;/b&gt;&lt;br&gt;(Main Menu)" style="rounded=0;whiteSpace=wrap;html=1;fillColor=#fff2cc;strokeColor=#d6b656;" vertex="1" parent="ZQFnYJXDpmsfhzi_7xz_-1">
          <mxGeometry x="1002.5" y="-790" width="105" height="50" as="geometry" />
        </mxCell>
        <mxCell id="hOeiYGEEd2lNkrISIDKO-22" value="Search TextBox" style="rounded=0;whiteSpace=wrap;html=1;strokeColor=none;" vertex="1" parent="ZQFnYJXDpmsfhzi_7xz_-1">
          <mxGeometry x="1002.5" y="-720" width="105" height="50" as="geometry" />
        </mxCell>
        <mxCell id="hOeiYGEEd2lNkrISIDKO-23" value="Search History" style="rounded=0;whiteSpace=wrap;html=1;strokeColor=none;" vertex="1" parent="ZQFnYJXDpmsfhzi_7xz_-1">
          <mxGeometry x="1002.5" y="-660" width="105" height="50" as="geometry" />
        </mxCell>
        <mxCell id="hOeiYGEEd2lNkrISIDKO-24" value="Search button" style="rounded=0;whiteSpace=wrap;html=1;strokeColor=none;" vertex="1" parent="ZQFnYJXDpmsfhzi_7xz_-1">
          <mxGeometry x="1002.5" y="-600" width="105" height="50" as="geometry" />
        </mxCell>
        <mxCell id="hOeiYGEEd2lNkrISIDKO-25" value="Hidden Menu" style="rounded=0;whiteSpace=wrap;html=1;fillColor=#fad7ac;strokeColor=none;" vertex="1" parent="ZQFnYJXDpmsfhzi_7xz_-1">
          <mxGeometry x="1002.5" y="-520" width="105" height="30" as="geometry" />
        </mxCell>
        <mxCell id="hOeiYGEEd2lNkrISIDKO-45" value="" style="rounded=1;whiteSpace=wrap;html=1;fillColor=#b0e3e6;strokeColor=#0e8088;" vertex="1" parent="ZQFnYJXDpmsfhzi_7xz_-1">
          <mxGeometry x="1200" y="-820" width="190" height="350" as="geometry" />
        </mxCell>
        <mxCell id="hOeiYGEEd2lNkrISIDKO-46" value="&lt;b&gt;Recipes&amp;nbsp;&lt;br&gt;(&lt;/b&gt;search results)" style="rounded=0;whiteSpace=wrap;html=1;fillColor=#b0e3e6;strokeColor=#0e8088;" vertex="1" parent="ZQFnYJXDpmsfhzi_7xz_-1">
          <mxGeometry x="1242.5" y="-790" width="105" height="50" as="geometry" />
        </mxCell>
        <mxCell id="hOeiYGEEd2lNkrISIDKO-47" value="Recipe 1" style="rounded=0;whiteSpace=wrap;html=1;strokeColor=none;" vertex="1" parent="ZQFnYJXDpmsfhzi_7xz_-1">
          <mxGeometry x="1242.5" y="-720" width="105" height="50" as="geometry" />
        </mxCell>
        <mxCell id="hOeiYGEEd2lNkrISIDKO-48" value="Previous" style="rounded=0;whiteSpace=wrap;html=1;strokeColor=none;" vertex="1" parent="ZQFnYJXDpmsfhzi_7xz_-1">
          <mxGeometry x="1242.5" y="-660" width="105" height="50" as="geometry" />
        </mxCell>
        <mxCell id="hOeiYGEEd2lNkrISIDKO-49" value="Next" style="rounded=0;whiteSpace=wrap;html=1;strokeColor=none;" vertex="1" parent="ZQFnYJXDpmsfhzi_7xz_-1">
          <mxGeometry x="1242.5" y="-600" width="105" height="50" as="geometry" />
        </mxCell>
        <mxCell id="oK5Izi5BsoriWey2qque-19" value="Hidden Menu" style="rounded=0;whiteSpace=wrap;html=1;fillColor=#fad7ac;strokeColor=none;" vertex="1" parent="ZQFnYJXDpmsfhzi_7xz_-1">
          <mxGeometry x="1242.5" y="-530" width="105" height="30" as="geometry" />
        </mxCell>
        <mxCell id="oK5Izi5BsoriWey2qque-21" value="Hidden Menu" style="rounded=0;whiteSpace=wrap;html=1;fillColor=#b1ddf0;strokeColor=none;" vertex="1" parent="ZQFnYJXDpmsfhzi_7xz_-1">
          <mxGeometry x="1482.5" y="-450" width="105" height="30" as="geometry" />
        </mxCell>
        <mxCell id="oK5Izi5BsoriWey2qque-22" value="Hidden Menu" style="rounded=0;whiteSpace=wrap;html=1;fillColor=#b1ddf0;strokeColor=none;" vertex="1" parent="ZQFnYJXDpmsfhzi_7xz_-1">
          <mxGeometry x="1485" y="-120" width="105" height="30" as="geometry" />
        </mxCell>
        <mxCell id="x4orNnI_L3-PMYIX9JWX-2" value="" style="group" vertex="1" connectable="0" parent="ZQFnYJXDpmsfhzi_7xz_-1">
          <mxGeometry x="70" y="-425" width="190" height="660" as="geometry" />
        </mxCell>
        <mxCell id="oK5Izi5BsoriWey2qque-7" value="&amp;nbsp; &amp;nbsp;" style="rounded=1;whiteSpace=wrap;html=1;fillColor=#d5e8d4;strokeColor=#82b366;" vertex="1" parent="x4orNnI_L3-PMYIX9JWX-2">
          <mxGeometry width="190" height="660" as="geometry" />
        </mxCell>
        <mxCell id="oK5Izi5BsoriWey2qque-8" value="&lt;b&gt;&lt;font style=&quot;font-size: 12px&quot;&gt;Hidden Menu&lt;/font&gt;&lt;/b&gt;" style="rounded=0;whiteSpace=wrap;html=1;fillColor=#fad7ac;strokeColor=none;" vertex="1" parent="x4orNnI_L3-PMYIX9JWX-2">
          <mxGeometry x="42.5" y="30" width="105" height="50" as="geometry" />
        </mxCell>
        <mxCell id="oK5Izi5BsoriWey2qque-9" value="Favorites" style="rounded=0;whiteSpace=wrap;html=1;strokeColor=none;" vertex="1" parent="x4orNnI_L3-PMYIX9JWX-2">
          <mxGeometry x="42.5" y="130" width="105" height="50" as="geometry" />
        </mxCell>
        <mxCell id="oK5Izi5BsoriWey2qque-10" value="Ingredients" style="rounded=0;whiteSpace=wrap;html=1;strokeColor=none;" vertex="1" parent="x4orNnI_L3-PMYIX9JWX-2">
          <mxGeometry x="42.5" y="190" width="105" height="50" as="geometry" />
        </mxCell>
        <mxCell id="oK5Izi5BsoriWey2qque-11" value="Search" style="rounded=0;whiteSpace=wrap;html=1;strokeColor=none;" vertex="1" parent="x4orNnI_L3-PMYIX9JWX-2">
          <mxGeometry x="42.5" y="250" width="105" height="50" as="geometry" />
        </mxCell>
        <mxCell id="oK5Izi5BsoriWey2qque-12" value="Settings" style="rounded=0;whiteSpace=wrap;html=1;strokeColor=none;" vertex="1" parent="x4orNnI_L3-PMYIX9JWX-2">
          <mxGeometry x="42.5" y="310" width="105" height="50" as="geometry" />
        </mxCell>
        <mxCell id="oK5Izi5BsoriWey2qque-13" value="Switch Users" style="rounded=0;whiteSpace=wrap;html=1;strokeColor=none;" vertex="1" parent="x4orNnI_L3-PMYIX9JWX-2">
          <mxGeometry x="42.5" y="370" width="105" height="50" as="geometry" />
        </mxCell>
        <mxCell id="oK5Izi5BsoriWey2qque-14" value="Printing Queue" style="rounded=0;whiteSpace=wrap;html=1;strokeColor=none;" vertex="1" parent="x4orNnI_L3-PMYIX9JWX-2">
          <mxGeometry x="42.5" y="430" width="105" height="50" as="geometry" />
        </mxCell>
        <mxCell id="oK5Izi5BsoriWey2qque-15" value="Printing Progress" style="rounded=0;whiteSpace=wrap;html=1;strokeColor=none;" vertex="1" parent="x4orNnI_L3-PMYIX9JWX-2">
          <mxGeometry x="42.5" y="490" width="105" height="50" as="geometry" />
        </mxCell>
        <mxCell id="oK5Izi5BsoriWey2qque-16" value="LogOut" style="rounded=0;whiteSpace=wrap;html=1;strokeColor=none;" vertex="1" parent="x4orNnI_L3-PMYIX9JWX-2">
          <mxGeometry x="42.5" y="550" width="105" height="50" as="geometry" />
        </mxCell>
        <mxCell id="oK5Izi5BsoriWey2qque-17" value="Close Icon" style="rounded=0;whiteSpace=wrap;html=1;fillColor=#fad7ac;strokeColor=none;" vertex="1" parent="x4orNnI_L3-PMYIX9JWX-2">
          <mxGeometry x="56.25" y="90" width="77.5" height="30" as="geometry" />
        </mxCell>
        <mxCell id="oK5Izi5BsoriWey2qque-18" value="Back Icon" style="rounded=0;whiteSpace=wrap;html=1;fillColor=#fad7ac;strokeColor=none;" vertex="1" parent="x4orNnI_L3-PMYIX9JWX-2">
          <mxGeometry x="56.25" y="610" width="67.5" height="30" as="geometry" />
        </mxCell>
        <mxCell id="hOeiYGEEd2lNkrISIDKO-56" value="" style="rounded=1;whiteSpace=wrap;html=1;fillColor=#b0e3e6;strokeColor=#0e8088;" vertex="1" parent="ZQFnYJXDpmsfhzi_7xz_-1">
          <mxGeometry x="1200" y="-450" width="190" height="420" as="geometry" />
        </mxCell>
        <mxCell id="hOeiYGEEd2lNkrISIDKO-57" value="&lt;b&gt;Recipe 1&lt;/b&gt;" style="rounded=0;whiteSpace=wrap;html=1;fillColor=#b0e3e6;strokeColor=#0e8088;" vertex="1" parent="ZQFnYJXDpmsfhzi_7xz_-1">
          <mxGeometry x="1242.5" y="-420" width="105" height="50" as="geometry" />
        </mxCell>
        <mxCell id="hOeiYGEEd2lNkrISIDKO-58" value="Add to Favorites" style="rounded=0;whiteSpace=wrap;html=1;strokeColor=none;" vertex="1" parent="ZQFnYJXDpmsfhzi_7xz_-1">
          <mxGeometry x="1242.5" y="-350" width="105" height="50" as="geometry" />
        </mxCell>
        <mxCell id="hOeiYGEEd2lNkrISIDKO-59" value="3D Print food" style="rounded=0;whiteSpace=wrap;html=1;strokeColor=none;" vertex="1" parent="ZQFnYJXDpmsfhzi_7xz_-1">
          <mxGeometry x="1242.5" y="-290" width="105" height="50" as="geometry" />
        </mxCell>
        <mxCell id="hOeiYGEEd2lNkrISIDKO-60" value="Zoom In" style="rounded=0;whiteSpace=wrap;html=1;strokeColor=none;" vertex="1" parent="ZQFnYJXDpmsfhzi_7xz_-1">
          <mxGeometry x="1242.5" y="-230" width="105" height="50" as="geometry" />
        </mxCell>
        <mxCell id="hOeiYGEEd2lNkrISIDKO-64" value="Printing Queue" style="rounded=0;whiteSpace=wrap;html=1;strokeColor=none;" vertex="1" parent="ZQFnYJXDpmsfhzi_7xz_-1">
          <mxGeometry x="1242.5" y="-170" width="105" height="50" as="geometry" />
        </mxCell>
        <mxCell id="x4orNnI_L3-PMYIX9JWX-27" value="" style="group" vertex="1" connectable="0" parent="ZQFnYJXDpmsfhzi_7xz_-1">
          <mxGeometry x="290" y="-425" width="190" height="345" as="geometry" />
        </mxCell>
        <mxCell id="oK5Izi5BsoriWey2qque-25" value="" style="rounded=1;whiteSpace=wrap;html=1;fillColor=#bac8d3;strokeColor=#23445d;" vertex="1" parent="x4orNnI_L3-PMYIX9JWX-27">
          <mxGeometry width="190" height="345" as="geometry" />
        </mxCell>
        <mxCell id="oK5Izi5BsoriWey2qque-26" value="&lt;b&gt;Settings&lt;/b&gt;" style="rounded=0;whiteSpace=wrap;html=1;fillColor=#bac8d3;strokeColor=#23445d;" vertex="1" parent="x4orNnI_L3-PMYIX9JWX-27">
          <mxGeometry x="42.5" y="30" width="105" height="50" as="geometry" />
        </mxCell>
        <mxCell id="oK5Izi5BsoriWey2qque-27" value="Preferences" style="rounded=0;whiteSpace=wrap;html=1;strokeColor=none;" vertex="1" parent="x4orNnI_L3-PMYIX9JWX-27">
          <mxGeometry x="42.5" y="160" width="105" height="50" as="geometry" />
        </mxCell>
        <mxCell id="oK5Izi5BsoriWey2qque-29" value="Edit" style="rounded=0;whiteSpace=wrap;html=1;strokeColor=none;" vertex="1" parent="x4orNnI_L3-PMYIX9JWX-27">
          <mxGeometry x="42.5" y="220" width="105" height="50" as="geometry" />
        </mxCell>
        <mxCell id="oK5Izi5BsoriWey2qque-30" value="Account&lt;br&gt;information" style="rounded=0;whiteSpace=wrap;html=1;strokeColor=none;" vertex="1" parent="x4orNnI_L3-PMYIX9JWX-27">
          <mxGeometry x="42.5" y="100" width="105" height="50" as="geometry" />
        </mxCell>
        <mxCell id="x4orNnI_L3-PMYIX9JWX-1" value="Hidden Menu" style="rounded=0;whiteSpace=wrap;html=1;fillColor=#fad7ac;strokeColor=none;" vertex="1" parent="x4orNnI_L3-PMYIX9JWX-27">
          <mxGeometry x="42.5" y="295" width="105" height="30" as="geometry" />
        </mxCell>
        <mxCell id="x4orNnI_L3-PMYIX9JWX-29" value="Hidden Menu" style="rounded=0;whiteSpace=wrap;html=1;fillColor=#fad7ac;strokeColor=none;" vertex="1" parent="ZQFnYJXDpmsfhzi_7xz_-1">
          <mxGeometry x="1242.5" y="-90" width="105" height="30" as="geometry" />
        </mxCell>
        <mxCell id="x4orNnI_L3-PMYIX9JWX-3" value="" style="rounded=1;whiteSpace=wrap;html=1;fillColor=#bac8d3;strokeColor=#23445d;" vertex="1" parent="ZQFnYJXDpmsfhzi_7xz_-1">
          <mxGeometry x="290" y="-60" width="190" height="670" as="geometry" />
        </mxCell>
        <mxCell id="x4orNnI_L3-PMYIX9JWX-4" value="&lt;b&gt;Edit Settings&lt;/b&gt;" style="rounded=0;whiteSpace=wrap;html=1;fillColor=#bac8d3;strokeColor=#23445d;" vertex="1" parent="ZQFnYJXDpmsfhzi_7xz_-1">
          <mxGeometry x="332.5" y="-20" width="105" height="50" as="geometry" />
        </mxCell>
        <mxCell id="x4orNnI_L3-PMYIX9JWX-5" value="Edit Account &lt;br&gt;Form" style="rounded=0;whiteSpace=wrap;html=1;strokeColor=none;" vertex="1" parent="ZQFnYJXDpmsfhzi_7xz_-1">
          <mxGeometry x="332.5" y="50" width="105" height="50" as="geometry" />
        </mxCell>
        <mxCell id="x4orNnI_L3-PMYIX9JWX-6" value="Hidden Menu" style="rounded=0;whiteSpace=wrap;html=1;fillColor=#fad7ac;strokeColor=none;" vertex="1" parent="ZQFnYJXDpmsfhzi_7xz_-1">
          <mxGeometry x="332.5" y="560" width="105" height="30" as="geometry" />
        </mxCell>
        <mxCell id="x4orNnI_L3-PMYIX9JWX-8" value="Auto-Locate&lt;br&gt;On/Off" style="rounded=0;whiteSpace=wrap;html=1;strokeColor=none;" vertex="1" parent="ZQFnYJXDpmsfhzi_7xz_-1">
          <mxGeometry x="332.5" y="170" width="105" height="50" as="geometry" />
        </mxCell>
        <mxCell id="x4orNnI_L3-PMYIX9JWX-9" value="Voice Recognition&lt;br&gt;On/Off" style="rounded=0;whiteSpace=wrap;html=1;strokeColor=none;" vertex="1" parent="ZQFnYJXDpmsfhzi_7xz_-1">
          <mxGeometry x="332.5" y="230" width="105" height="50" as="geometry" />
        </mxCell>
        <mxCell id="x4orNnI_L3-PMYIX9JWX-10" value="Bluetooth&lt;br&gt;Disconnect&amp;nbsp;" style="rounded=0;whiteSpace=wrap;html=1;strokeColor=none;" vertex="1" parent="ZQFnYJXDpmsfhzi_7xz_-1">
          <mxGeometry x="332.5" y="290" width="105" height="50" as="geometry" />
        </mxCell>
        <mxCell id="x4orNnI_L3-PMYIX9JWX-12" value="Wifi&lt;br&gt;Disconnect&amp;nbsp;" style="rounded=0;whiteSpace=wrap;html=1;strokeColor=none;" vertex="1" parent="ZQFnYJXDpmsfhzi_7xz_-1">
          <mxGeometry x="332.5" y="350" width="105" height="50" as="geometry" />
        </mxCell>
        <mxCell id="x4orNnI_L3-PMYIX9JWX-19" value="Delete Account" style="rounded=0;whiteSpace=wrap;html=1;strokeColor=none;" vertex="1" parent="ZQFnYJXDpmsfhzi_7xz_-1">
          <mxGeometry x="332.5" y="110" width="105" height="50" as="geometry" />
        </mxCell>
        <mxCell id="u6RRFZj963f-KqmHpkcR-0" value="Change Profile&lt;br&gt;image" style="rounded=0;whiteSpace=wrap;html=1;strokeColor=none;" vertex="1" parent="ZQFnYJXDpmsfhzi_7xz_-1">
          <mxGeometry x="332.5" y="410" width="105" height="50" as="geometry" />
        </mxCell>
        <mxCell id="x4orNnI_L3-PMYIX9JWX-31" value="" style="rounded=1;whiteSpace=wrap;html=1;fillColor=#eeeeee;strokeColor=#36393d;" vertex="1" parent="ZQFnYJXDpmsfhzi_7xz_-1">
          <mxGeometry x="1200" y="350" width="190" height="295" as="geometry" />
        </mxCell>
        <mxCell id="x4orNnI_L3-PMYIX9JWX-32" value="&lt;b&gt;Printing&lt;br&gt;Progress&lt;br&gt;&lt;/b&gt;" style="rounded=0;whiteSpace=wrap;html=1;strokeColor=#36393d;fillColor=#eeeeee;" vertex="1" parent="ZQFnYJXDpmsfhzi_7xz_-1">
          <mxGeometry x="1242.5" y="377.5" width="105" height="50" as="geometry" />
        </mxCell>
        <mxCell id="x4orNnI_L3-PMYIX9JWX-33" value="Cancel" style="rounded=0;whiteSpace=wrap;html=1;strokeColor=none;" vertex="1" parent="ZQFnYJXDpmsfhzi_7xz_-1">
          <mxGeometry x="1242.5" y="447.5" width="105" height="50" as="geometry" />
        </mxCell>
        <mxCell id="x4orNnI_L3-PMYIX9JWX-34" value="Hidden Menu" style="rounded=0;whiteSpace=wrap;html=1;fillColor=#b1ddf0;strokeColor=none;" vertex="1" parent="ZQFnYJXDpmsfhzi_7xz_-1">
          <mxGeometry x="1242.5" y="585" width="105" height="30" as="geometry" />
        </mxCell>
        <mxCell id="x4orNnI_L3-PMYIX9JWX-42" value="Speed Up" style="rounded=0;whiteSpace=wrap;html=1;strokeColor=none;" vertex="1" parent="ZQFnYJXDpmsfhzi_7xz_-1">
          <mxGeometry x="1242.5" y="505" width="105" height="50" as="geometry" />
        </mxCell>
        <mxCell id="u6RRFZj963f-KqmHpkcR-10" value="Save changes" style="rounded=0;whiteSpace=wrap;html=1;fillColor=#fad7ac;strokeColor=none;" vertex="1" parent="ZQFnYJXDpmsfhzi_7xz_-1">
          <mxGeometry x="332.5" y="475" width="105" height="30" as="geometry" />
        </mxCell>
        <mxCell id="u6RRFZj963f-KqmHpkcR-11" value="Cancel" style="rounded=0;whiteSpace=wrap;html=1;fillColor=#fad7ac;strokeColor=none;" vertex="1" parent="ZQFnYJXDpmsfhzi_7xz_-1">
          <mxGeometry x="332.5" y="515" width="105" height="30" as="geometry" />
        </mxCell>
        <mxCell id="u6RRFZj963f-KqmHpkcR-4" value="" style="rounded=1;whiteSpace=wrap;html=1;fillColor=#bac8d3;strokeColor=#23445d;" vertex="1" parent="ZQFnYJXDpmsfhzi_7xz_-1">
          <mxGeometry x="510" y="-430" width="190" height="360" as="geometry" />
        </mxCell>
        <mxCell id="u6RRFZj963f-KqmHpkcR-5" value="&lt;b&gt;Change Profile&lt;br&gt;Image&lt;br&gt;&lt;/b&gt;" style="rounded=0;whiteSpace=wrap;html=1;fillColor=#bac8d3;strokeColor=#23445d;" vertex="1" parent="ZQFnYJXDpmsfhzi_7xz_-1">
          <mxGeometry x="552.5" y="-400" width="105" height="50" as="geometry" />
        </mxCell>
        <mxCell id="u6RRFZj963f-KqmHpkcR-6" value="Choose from&amp;nbsp;&lt;br&gt;Icons" style="rounded=0;whiteSpace=wrap;html=1;strokeColor=none;" vertex="1" parent="ZQFnYJXDpmsfhzi_7xz_-1">
          <mxGeometry x="552.5" y="-270" width="105" height="50" as="geometry" />
        </mxCell>
        <mxCell id="u6RRFZj963f-KqmHpkcR-8" value="Upload" style="rounded=0;whiteSpace=wrap;html=1;strokeColor=none;" vertex="1" parent="ZQFnYJXDpmsfhzi_7xz_-1">
          <mxGeometry x="552.5" y="-330" width="105" height="50" as="geometry" />
        </mxCell>
        <mxCell id="u6RRFZj963f-KqmHpkcR-9" value="Hidden Menu" style="rounded=0;whiteSpace=wrap;html=1;fillColor=#fad7ac;strokeColor=none;" vertex="1" parent="ZQFnYJXDpmsfhzi_7xz_-1">
          <mxGeometry x="552.5" y="-120" width="105" height="30" as="geometry" />
        </mxCell>
        <mxCell id="u6RRFZj963f-KqmHpkcR-12" value="Save changes" style="rounded=0;whiteSpace=wrap;html=1;fillColor=#fad7ac;strokeColor=none;" vertex="1" parent="ZQFnYJXDpmsfhzi_7xz_-1">
          <mxGeometry x="552.5" y="-210" width="105" height="30" as="geometry" />
        </mxCell>
        <mxCell id="u6RRFZj963f-KqmHpkcR-13" value="Cancel" style="rounded=0;whiteSpace=wrap;html=1;fillColor=#fad7ac;strokeColor=none;" vertex="1" parent="ZQFnYJXDpmsfhzi_7xz_-1">
          <mxGeometry x="552.5" y="-170" width="105" height="30" as="geometry" />
        </mxCell>
        <mxCell id="u6RRFZj963f-KqmHpkcR-14" value="" style="rounded=1;whiteSpace=wrap;html=1;fillColor=#f9f7ed;strokeColor=#36393d;" vertex="1" parent="ZQFnYJXDpmsfhzi_7xz_-1">
          <mxGeometry x="730" y="-432.5" width="190" height="360" as="geometry" />
        </mxCell>
        <mxCell id="u6RRFZj963f-KqmHpkcR-15" value="&lt;b&gt;Ingredients&lt;br&gt;&lt;/b&gt;" style="rounded=0;whiteSpace=wrap;html=1;fillColor=#f9f7ed;strokeColor=#36393d;" vertex="1" parent="ZQFnYJXDpmsfhzi_7xz_-1">
          <mxGeometry x="772.5" y="-402.5" width="105" height="50" as="geometry" />
        </mxCell>
        <mxCell id="u6RRFZj963f-KqmHpkcR-16" value="Available" style="rounded=0;whiteSpace=wrap;html=1;strokeColor=none;" vertex="1" parent="ZQFnYJXDpmsfhzi_7xz_-1">
          <mxGeometry x="772.5" y="-332.5" width="105" height="50" as="geometry" />
        </mxCell>
        <mxCell id="u6RRFZj963f-KqmHpkcR-17" value="Hidden Menu" style="rounded=0;whiteSpace=wrap;html=1;fillColor=#fad7ac;strokeColor=none;" vertex="1" parent="ZQFnYJXDpmsfhzi_7xz_-1">
          <mxGeometry x="772.5" y="-120" width="105" height="30" as="geometry" />
        </mxCell>
        <mxCell id="u6RRFZj963f-KqmHpkcR-18" value="Running Low" style="rounded=0;whiteSpace=wrap;html=1;strokeColor=none;" vertex="1" parent="ZQFnYJXDpmsfhzi_7xz_-1">
          <mxGeometry x="772.5" y="-270" width="105" height="50" as="geometry" />
        </mxCell>
        <mxCell id="u6RRFZj963f-KqmHpkcR-19" value="Out" style="rounded=0;whiteSpace=wrap;html=1;strokeColor=none;" vertex="1" parent="ZQFnYJXDpmsfhzi_7xz_-1">
          <mxGeometry x="772.5" y="-210" width="105" height="50" as="geometry" />
        </mxCell>
        <mxCell id="u6RRFZj963f-KqmHpkcR-20" value="" style="rounded=1;whiteSpace=wrap;html=1;fillColor=#eeeeee;strokeColor=#36393d;" vertex="1" parent="ZQFnYJXDpmsfhzi_7xz_-1">
          <mxGeometry x="1420" y="347.5" width="190" height="300" as="geometry" />
        </mxCell>
        <mxCell id="u6RRFZj963f-KqmHpkcR-21" value="&lt;b&gt;Printing Completed&lt;br&gt;&lt;/b&gt;" style="rounded=0;whiteSpace=wrap;html=1;fillColor=#eeeeee;strokeColor=#36393d;" vertex="1" parent="ZQFnYJXDpmsfhzi_7xz_-1">
          <mxGeometry x="1462.5" y="377.5" width="105" height="50" as="geometry" />
        </mxCell>
        <mxCell id="u6RRFZj963f-KqmHpkcR-22" value="Hidden Menu" style="rounded=0;whiteSpace=wrap;html=1;fillColor=#b1ddf0;strokeColor=none;" vertex="1" parent="ZQFnYJXDpmsfhzi_7xz_-1">
          <mxGeometry x="1462.5" y="577.5" width="105" height="30" as="geometry" />
        </mxCell>
        <mxCell id="u6RRFZj963f-KqmHpkcR-23" value="Print Again" style="rounded=0;whiteSpace=wrap;html=1;strokeColor=none;" vertex="1" parent="ZQFnYJXDpmsfhzi_7xz_-1">
          <mxGeometry x="1462.5" y="447.5" width="105" height="50" as="geometry" />
        </mxCell>
        <mxCell id="u6RRFZj963f-KqmHpkcR-24" value="Main Menu&amp;nbsp;" style="rounded=0;whiteSpace=wrap;html=1;strokeColor=none;" vertex="1" parent="ZQFnYJXDpmsfhzi_7xz_-1">
          <mxGeometry x="1462.5" y="507.5" width="105" height="50" as="geometry" />
        </mxCell>
        <mxCell id="x4orNnI_L3-PMYIX9JWX-16" value="" style="rounded=1;whiteSpace=wrap;html=1;fillColor=#eeeeee;strokeColor=#36393d;" vertex="1" parent="ZQFnYJXDpmsfhzi_7xz_-1">
          <mxGeometry x="1200" y="-10" width="190" height="345" as="geometry" />
        </mxCell>
        <mxCell id="x4orNnI_L3-PMYIX9JWX-13" value="&lt;b&gt;3D Print Food&lt;/b&gt;" style="rounded=0;whiteSpace=wrap;html=1;fillColor=#eeeeee;strokeColor=#36393d;" vertex="1" parent="ZQFnYJXDpmsfhzi_7xz_-1">
          <mxGeometry x="1242.5" y="17.5" width="105" height="50" as="geometry" />
        </mxCell>
        <mxCell id="x4orNnI_L3-PMYIX9JWX-14" value="Quantity" style="rounded=0;whiteSpace=wrap;html=1;strokeColor=none;" vertex="1" parent="ZQFnYJXDpmsfhzi_7xz_-1">
          <mxGeometry x="1242.5" y="87.5" width="105" height="50" as="geometry" />
        </mxCell>
        <mxCell id="x4orNnI_L3-PMYIX9JWX-17" value="Print Now" style="rounded=0;whiteSpace=wrap;html=1;strokeColor=none;" vertex="1" parent="ZQFnYJXDpmsfhzi_7xz_-1">
          <mxGeometry x="1242.5" y="145" width="105" height="50" as="geometry" />
        </mxCell>
        <mxCell id="x4orNnI_L3-PMYIX9JWX-18" value="Continue Looking for Recipes" style="rounded=0;whiteSpace=wrap;html=1;strokeColor=none;" vertex="1" parent="ZQFnYJXDpmsfhzi_7xz_-1">
          <mxGeometry x="1242.5" y="205" width="105" height="50" as="geometry" />
        </mxCell>
        <mxCell id="oK5Izi5BsoriWey2qque-20" value="Cancel" style="rounded=0;whiteSpace=wrap;html=1;fillColor=#b1ddf0;strokeColor=none;" vertex="1" parent="ZQFnYJXDpmsfhzi_7xz_-1">
          <mxGeometry x="1242.5" y="275" width="105" height="30" as="geometry" />
        </mxCell>
        <mxCell id="u6RRFZj963f-KqmHpkcR-26" value="" style="rounded=1;whiteSpace=wrap;html=1;fillColor=#cdeb8b;strokeColor=#36393d;" vertex="1" parent="ZQFnYJXDpmsfhzi_7xz_-1">
          <mxGeometry x="510" y="-37.5" width="190" height="287.5" as="geometry" />
        </mxCell>
        <mxCell id="u6RRFZj963f-KqmHpkcR-27" value="&lt;b&gt;Printing Queue&lt;/b&gt;" style="rounded=0;whiteSpace=wrap;html=1;fillColor=#cdeb8b;strokeColor=#36393d;" vertex="1" parent="ZQFnYJXDpmsfhzi_7xz_-1">
          <mxGeometry x="552.5" y="-10" width="105" height="50" as="geometry" />
        </mxCell>
        <mxCell id="u6RRFZj963f-KqmHpkcR-28" value="Hidden Menu" style="rounded=0;whiteSpace=wrap;html=1;fillColor=#b1ddf0;strokeColor=none;" vertex="1" parent="ZQFnYJXDpmsfhzi_7xz_-1">
          <mxGeometry x="552.5" y="205" width="105" height="30" as="geometry" />
        </mxCell>
        <mxCell id="u6RRFZj963f-KqmHpkcR-29" value="Quantity" style="rounded=0;whiteSpace=wrap;html=1;strokeColor=none;" vertex="1" parent="ZQFnYJXDpmsfhzi_7xz_-1">
          <mxGeometry x="552.5" y="60" width="105" height="50" as="geometry" />
        </mxCell>
        <mxCell id="u6RRFZj963f-KqmHpkcR-30" value="Print" style="rounded=0;whiteSpace=wrap;html=1;strokeColor=none;" vertex="1" parent="ZQFnYJXDpmsfhzi_7xz_-1">
          <mxGeometry x="552.5" y="120" width="105" height="50" as="geometry" />
        </mxCell>
      </root>
    </mxGraphModel>
  </diagram>
</mxfile>
